<svg xmlns="http://www.w3.org/2000/svg" width="226" height="32" viewBox="0 0 226 32">
<g fill="#313146" fill-rule="nonzero">
<path d="M18.87 19.901l-4.348-9.295h-.13L10.13 19.9h8.74zm-18.783 9L13.61.464c.13-.253.347-.464.739-.464h.434c.435 0 .609.211.74.464l13.391 28.437c.26.55-.087 1.099-.739 1.099h-3.783c-.652 0-.956-.253-1.261-.845L21 24.592H8l-2.13 4.563c-.174.423-.566.845-1.261.845H.826c-.652 0-1-.55-.739-1.099zM38 1.803c0-.422.388-.803.819-.803h4.093a.81.81 0 0 1 .818.803v17.282c0 3.59 2.5 6.422 6.248 6.422 3.749 0 6.29-2.831 6.29-6.38V1.802a.81.81 0 0 1 .82-.803h4.093c.43 0 .819.381.819.803V19.38C62 25.804 56.786 31 49.978 31 43.213 31 38 25.804 38 19.38V1.803zM87.426 25.771c5.577 0 9.653-4.2 9.653-9.814 0-5.57-4.076-9.771-9.653-9.771h-4.892V25.77h4.892zM77 1.815c0-.43.343-.815.772-.815h10.169C96.22 1 103 7.729 103 15.957 103 24.272 96.222 31 87.94 31H77.773c-.429 0-.772-.386-.772-.815V1.815zM116 1.815c0-.428.344-.815.725-.815h3.55c.38 0 .725.387.725.815v28.371c0 .428-.344.814-.725.814h-3.55c-.381 0-.725-.386-.725-.814V1.815zM139.968 4.35c3.438-2.69 6.783-3.555 10.739-3.31.522.03.844.434.788.917l-.383 3.748c-.024.457-.364.724-.851.666-2.425-.129-4.924.62-6.83 2.112-4.358 3.408-4.714 9.546-1.326 13.793 3.361 4.214 9.48 5.23 13.838 1.822 2.043-1.597 3.16-3.732 3.676-5.995.084-.45.486-.708.852-.666l3.83.507c.462.023.743.514.693.936-.54 4.036-2.634 7.37-5.665 9.74-6.808 5.326-16.565 4.255-21.943-2.487s-4.227-16.458 2.582-21.784M172 1.803c0-.422.388-.803.819-.803h4.093a.81.81 0 0 1 .818.803v17.282c0 3.59 2.5 6.422 6.248 6.422 3.749 0 6.29-2.831 6.29-6.38V1.802a.81.81 0 0 1 .82-.803h4.093c.43 0 .819.381.819.803V19.38c0 6.424-5.214 11.62-12.022 11.62C177.213 31 172 25.804 172 19.38V1.803zM207.196 26.35l1.488-2.669a.936.936 0 0 1 1.405-.302c.207.13 3.554 2.67 6.24 2.67 2.15 0 3.761-1.464 3.761-3.316 0-2.196-1.777-3.702-5.248-5.167-3.885-1.636-7.77-4.22-7.77-9.3 0-3.831 2.728-8.266 9.299-8.266 4.215 0 7.44 2.239 8.266 2.884.412.259.537.99.248 1.42l-1.571 2.455c-.33.518-.95.86-1.447.518-.33-.217-3.47-2.37-5.744-2.37-2.355 0-3.637 1.637-3.637 3.015 0 2.023 1.53 3.402 4.877 4.823 4.009 1.68 8.637 4.176 8.637 9.73 0 4.435-3.678 8.525-9.505 8.525-5.208 0-8.265-2.54-9.092-3.357-.372-.389-.579-.603-.207-1.293"></path>
</g>
</svg>