<?xml version="1.0" encoding="UTF-8"?>
<svg xmlns="http://www.w3.org/2000/svg" xmlns:xlink="http://www.w3.org/1999/xlink" width="231px" height="100px" viewBox="0 0 230 100" version="1.1">
<g id="surface1">
<path style=" stroke:none;fill-rule:nonzero;fill:rgb(10.196078%,16.862745%,37.254902%);fill-opacity:1;" d="M 64.679688 39.902344 C 64.398438 40.246094 63.898438 40.332031 63.527344 40.078125 C 63.128906 39.8125 63.023438 39.277344 63.289062 38.882812 C 63.351562 38.789062 63.425781 38.714844 63.515625 38.652344 C 63.574219 38.613281 63.632812 38.582031 63.699219 38.554688 C 63.949219 38.460938 64.242188 38.484375 64.484375 38.644531 C 64.492188 38.648438 64.496094 38.65625 64.503906 38.660156 L 64.675781 39.902344 Z M 64.679688 39.902344 "/>
<path style=" stroke:none;fill-rule:nonzero;fill:rgb(10.196078%,16.862745%,37.254902%);fill-opacity:1;" d="M 62.738281 36.089844 C 63.132812 36.355469 63.671875 36.25 63.933594 35.855469 C 64.199219 35.457031 64.09375 34.921875 63.699219 34.65625 C 63.304688 34.390625 62.769531 34.496094 62.503906 34.894531 C 62.238281 35.289062 62.34375 35.824219 62.738281 36.089844 Z M 62.738281 36.089844 "/>
<path style=" stroke:none;fill-rule:nonzero;fill:rgb(10.196078%,16.862745%,37.254902%);fill-opacity:1;" d="M 58.75 36.875 C 59.144531 37.140625 59.683594 37.035156 59.949219 36.640625 C 60.210938 36.242188 60.109375 35.707031 59.710938 35.441406 C 59.316406 35.179688 58.78125 35.28125 58.515625 35.679688 C 58.25 36.074219 58.355469 36.609375 58.75 36.875 Z M 58.75 36.875 "/>
<path style=" stroke:none;fill-rule:nonzero;fill:rgb(10.196078%,16.862745%,37.254902%);fill-opacity:1;" d="M 61.953125 32.097656 C 62.347656 32.363281 62.882812 32.257812 63.148438 31.863281 C 63.414062 31.46875 63.308594 30.933594 62.914062 30.667969 C 62.519531 30.402344 61.984375 30.507812 61.71875 30.902344 C 61.453125 31.296875 61.558594 31.832031 61.953125 32.097656 Z M 61.953125 32.097656 "/>
<path style=" stroke:none;fill-rule:nonzero;fill:rgb(10.196078%,16.862745%,37.254902%);fill-opacity:1;" d="M 65.828125 48.164062 C 65.585938 48.242188 65.316406 48.210938 65.09375 48.058594 C 64.699219 47.792969 64.589844 47.257812 64.859375 46.859375 C 65.03125 46.605469 65.308594 46.472656 65.59375 46.480469 Z M 65.828125 48.164062 "/>
<path style=" stroke:none;fill-rule:nonzero;fill:rgb(10.196078%,16.862745%,37.254902%);fill-opacity:1;" d="M 60.320312 44.855469 C 60.714844 45.121094 61.25 45.015625 61.515625 44.621094 C 61.78125 44.222656 61.675781 43.6875 61.28125 43.421875 C 60.886719 43.15625 60.351562 43.261719 60.085938 43.65625 C 59.820312 44.054688 59.925781 44.589844 60.320312 44.855469 Z M 60.320312 44.855469 "/>
<path style=" stroke:none;fill-rule:nonzero;fill:rgb(10.196078%,16.862745%,37.254902%);fill-opacity:1;" d="M 56.332031 45.640625 C 56.726562 45.90625 57.265625 45.800781 57.527344 45.40625 C 57.792969 45.007812 57.6875 44.472656 57.292969 44.207031 C 56.898438 43.941406 56.363281 44.046875 56.097656 44.441406 C 55.832031 44.839844 55.9375 45.375 56.332031 45.640625 Z M 56.332031 45.640625 "/>
<path style=" stroke:none;fill-rule:nonzero;fill:rgb(10.196078%,16.862745%,37.254902%);fill-opacity:1;" d="M 62.304688 48.609375 C 62.230469 48.714844 62.144531 48.800781 62.039062 48.859375 L 60.757812 48.367188 C 60.691406 48.128906 60.722656 47.867188 60.871094 47.644531 C 61.136719 47.25 61.667969 47.144531 62.066406 47.414062 C 62.460938 47.679688 62.566406 48.210938 62.304688 48.609375 Z M 62.304688 48.609375 "/>
<path style=" stroke:none;fill-rule:nonzero;fill:rgb(10.196078%,16.862745%,37.254902%);fill-opacity:1;" d="M 59.535156 40.863281 C 59.929688 41.128906 60.464844 41.023438 60.730469 40.628906 C 60.996094 40.234375 60.890625 39.695312 60.496094 39.433594 C 60.101562 39.167969 59.566406 39.273438 59.300781 39.667969 C 59.035156 40.0625 59.140625 40.597656 59.535156 40.863281 Z M 59.535156 40.863281 "/>
<path style=" stroke:none;fill-rule:nonzero;fill:rgb(10.196078%,16.862745%,37.254902%);fill-opacity:1;" d="M 65.261719 44.074219 C 64.980469 44.257812 64.605469 44.265625 64.308594 44.070312 C 63.914062 43.804688 63.808594 43.269531 64.074219 42.871094 C 64.289062 42.550781 64.6875 42.417969 65.042969 42.53125 L 65.257812 44.074219 Z M 65.261719 44.074219 "/>
<path style=" stroke:none;fill-rule:nonzero;fill:rgb(10.196078%,16.862745%,37.254902%);fill-opacity:1;" d="M 53.679688 45.648438 L 52.222656 45.089844 C 52.511719 44.8125 52.957031 44.761719 53.304688 44.996094 C 53.535156 45.148438 53.664062 45.390625 53.683594 45.648438 Z M 53.679688 45.648438 "/>
<path style=" stroke:none;fill-rule:nonzero;fill:rgb(10.196078%,16.862745%,37.254902%);fill-opacity:1;" d="M 55.546875 41.648438 C 55.941406 41.914062 56.476562 41.808594 56.742188 41.414062 C 57.007812 41.019531 56.902344 40.484375 56.507812 40.21875 C 56.113281 39.953125 55.578125 40.058594 55.3125 40.453125 C 55.046875 40.847656 55.152344 41.382812 55.546875 41.648438 Z M 55.546875 41.648438 "/>
<path style=" stroke:none;fill-rule:nonzero;fill:rgb(10.196078%,16.862745%,37.254902%);fill-opacity:1;" d="M 64.679688 39.902344 C 64.398438 40.246094 63.898438 40.332031 63.527344 40.078125 C 63.128906 39.8125 63.023438 39.277344 63.289062 38.882812 C 63.351562 38.789062 63.425781 38.714844 63.515625 38.652344 C 63.574219 38.613281 63.632812 38.582031 63.699219 38.554688 C 63.949219 38.460938 64.242188 38.484375 64.484375 38.644531 C 64.492188 38.648438 64.496094 38.65625 64.503906 38.660156 L 64.675781 39.902344 Z M 64.679688 39.902344 "/>
<path style=" stroke:none;fill-rule:nonzero;fill:rgb(10.196078%,16.862745%,37.254902%);fill-opacity:1;" d="M 58.75 36.875 C 59.144531 37.140625 59.679688 37.035156 59.945312 36.636719 C 60.210938 36.242188 60.105469 35.707031 59.710938 35.441406 C 59.316406 35.175781 58.78125 35.28125 58.515625 35.675781 C 58.25 36.074219 58.355469 36.609375 58.75 36.875 Z M 58.75 36.875 "/>
<path style=" stroke:none;fill-rule:nonzero;fill:rgb(10.196078%,16.862745%,37.254902%);fill-opacity:1;" d="M 53.679688 45.648438 L 52.222656 45.089844 C 52.511719 44.8125 52.957031 44.761719 53.304688 44.996094 C 53.535156 45.148438 53.664062 45.390625 53.683594 45.648438 Z M 53.679688 45.648438 "/>
<path style=" stroke:none;fill-rule:nonzero;fill:rgb(10.196078%,16.862745%,37.254902%);fill-opacity:1;" d="M 60.382812 24.121094 C 60.78125 24.386719 61.316406 24.28125 61.582031 23.882812 C 61.84375 23.488281 61.742188 22.953125 61.34375 22.6875 C 60.949219 22.421875 60.414062 22.527344 60.148438 22.921875 C 59.882812 23.320312 59.988281 23.855469 60.382812 24.121094 Z M 60.382812 24.121094 "/>
<path style=" stroke:none;fill-rule:nonzero;fill:rgb(10.196078%,16.862745%,37.254902%);fill-opacity:1;" d="M 59.597656 20.128906 C 59.996094 20.394531 60.53125 20.289062 60.796875 19.894531 C 61.058594 19.5 60.953125 18.960938 60.558594 18.695312 C 60.164062 18.433594 59.628906 18.535156 59.363281 18.933594 C 59.097656 19.328125 59.203125 19.863281 59.597656 20.128906 Z M 59.597656 20.128906 "/>
<path style=" stroke:none;fill-rule:nonzero;fill:rgb(10.196078%,16.862745%,37.254902%);fill-opacity:1;" d="M 55.609375 20.914062 C 56.003906 21.179688 56.539062 21.074219 56.804688 20.679688 C 57.070312 20.285156 56.964844 19.746094 56.570312 19.484375 C 56.175781 19.21875 55.640625 19.324219 55.375 19.71875 C 55.109375 20.113281 55.214844 20.648438 55.609375 20.914062 Z M 55.609375 20.914062 "/>
<path style=" stroke:none;fill-rule:nonzero;fill:rgb(10.196078%,16.862745%,37.254902%);fill-opacity:1;" d="M 58.8125 16.140625 C 59.207031 16.40625 59.746094 16.300781 60.011719 15.90625 C 60.273438 15.507812 60.171875 14.972656 59.773438 14.707031 C 59.378906 14.441406 58.84375 14.546875 58.578125 14.945312 C 58.3125 15.339844 58.417969 15.875 58.8125 16.140625 Z M 58.8125 16.140625 "/>
<path style=" stroke:none;fill-rule:nonzero;fill:rgb(10.196078%,16.862745%,37.254902%);fill-opacity:1;" d="M 58.75 36.875 C 59.144531 37.140625 59.683594 37.035156 59.949219 36.640625 C 60.210938 36.242188 60.109375 35.707031 59.710938 35.441406 C 59.316406 35.179688 58.78125 35.28125 58.515625 35.679688 C 58.25 36.074219 58.355469 36.609375 58.75 36.875 Z M 58.75 36.875 "/>
<path style=" stroke:none;fill-rule:nonzero;fill:rgb(10.196078%,16.862745%,37.254902%);fill-opacity:1;" d="M 53.976562 33.671875 C 54.371094 33.933594 54.90625 33.832031 55.171875 33.433594 C 55.4375 33.039062 55.332031 32.503906 54.9375 32.238281 C 54.542969 31.972656 54.007812 32.078125 53.742188 32.472656 C 53.476562 32.871094 53.582031 33.40625 53.976562 33.671875 Z M 53.976562 33.671875 "/>
<path style=" stroke:none;fill-rule:nonzero;fill:rgb(10.196078%,16.862745%,37.254902%);fill-opacity:1;" d="M 61.953125 32.097656 C 62.347656 32.363281 62.882812 32.257812 63.148438 31.863281 C 63.414062 31.46875 63.308594 30.933594 62.914062 30.667969 C 62.519531 30.402344 61.984375 30.507812 61.71875 30.902344 C 61.453125 31.296875 61.558594 31.832031 61.953125 32.097656 Z M 61.953125 32.097656 "/>
<path style=" stroke:none;fill-rule:nonzero;fill:rgb(10.196078%,16.862745%,37.254902%);fill-opacity:1;" d="M 57.179688 28.894531 C 57.574219 29.160156 58.113281 29.054688 58.375 28.660156 C 58.640625 28.261719 58.535156 27.726562 58.140625 27.460938 C 57.746094 27.195312 57.210938 27.300781 56.945312 27.699219 C 56.679688 28.09375 56.785156 28.628906 57.179688 28.894531 Z M 57.179688 28.894531 "/>
<path style=" stroke:none;fill-rule:nonzero;fill:rgb(10.196078%,16.862745%,37.254902%);fill-opacity:1;" d="M 53.191406 29.679688 C 53.585938 29.945312 54.121094 29.839844 54.386719 29.445312 C 54.652344 29.050781 54.546875 28.511719 54.152344 28.246094 C 53.757812 27.984375 53.222656 28.085938 52.957031 28.484375 C 52.691406 28.878906 52.796875 29.414062 53.191406 29.679688 Z M 53.191406 29.679688 "/>
<path style=" stroke:none;fill-rule:nonzero;fill:rgb(10.196078%,16.862745%,37.254902%);fill-opacity:1;" d="M 57.964844 32.882812 C 58.359375 33.148438 58.898438 33.046875 59.160156 32.648438 C 59.425781 32.253906 59.320312 31.71875 58.925781 31.453125 C 58.53125 31.1875 57.996094 31.292969 57.730469 31.6875 C 57.464844 32.082031 57.570312 32.621094 57.964844 32.882812 Z M 57.964844 32.882812 "/>
<path style=" stroke:none;fill-rule:nonzero;fill:rgb(10.196078%,16.862745%,37.254902%);fill-opacity:1;" d="M 56.394531 24.90625 C 56.789062 25.171875 57.328125 25.066406 57.589844 24.671875 C 57.855469 24.273438 57.75 23.738281 57.355469 23.472656 C 56.960938 23.207031 56.425781 23.3125 56.160156 23.707031 C 55.894531 24.105469 56 24.640625 56.394531 24.90625 Z M 56.394531 24.90625 "/>
<path style=" stroke:none;fill-rule:nonzero;fill:rgb(10.196078%,16.862745%,37.254902%);fill-opacity:1;" d="M 61.167969 28.109375 C 61.566406 28.375 62.101562 28.269531 62.367188 27.875 C 62.632812 27.476562 62.523438 26.941406 62.128906 26.675781 C 61.734375 26.410156 61.199219 26.515625 60.933594 26.910156 C 60.667969 27.308594 60.773438 27.84375 61.167969 28.109375 Z M 61.167969 28.109375 "/>
<path style=" stroke:none;fill-rule:nonzero;fill:rgb(10.196078%,16.862745%,37.254902%);fill-opacity:1;" d="M 49.203125 30.464844 C 49.597656 30.730469 50.132812 30.625 50.398438 30.230469 C 50.664062 29.835938 50.558594 29.296875 50.164062 29.035156 C 49.769531 28.769531 49.234375 28.875 48.96875 29.269531 C 48.703125 29.664062 48.808594 30.199219 49.203125 30.464844 Z M 49.203125 30.464844 "/>
<path style=" stroke:none;fill-rule:nonzero;fill:rgb(10.196078%,16.862745%,37.254902%);fill-opacity:1;" d="M 52.40625 25.691406 C 52.800781 25.957031 53.335938 25.851562 53.601562 25.457031 C 53.867188 25.058594 53.761719 24.523438 53.367188 24.257812 C 52.972656 23.992188 52.433594 24.097656 52.171875 24.492188 C 51.90625 24.890625 52.011719 25.425781 52.40625 25.691406 Z M 52.40625 25.691406 "/>
<path style=" stroke:none;fill-rule:nonzero;fill:rgb(10.196078%,16.862745%,37.254902%);fill-opacity:1;" d="M 60.382812 24.121094 C 60.78125 24.386719 61.316406 24.28125 61.582031 23.882812 C 61.84375 23.488281 61.738281 22.953125 61.34375 22.6875 C 60.949219 22.421875 60.414062 22.527344 60.148438 22.921875 C 59.882812 23.320312 59.988281 23.855469 60.382812 24.121094 Z M 60.382812 24.121094 "/>
<path style=" stroke:none;fill-rule:nonzero;fill:rgb(10.196078%,16.862745%,37.254902%);fill-opacity:1;" d="M 55.609375 20.914062 C 56.003906 21.179688 56.539062 21.074219 56.804688 20.679688 C 57.070312 20.28125 56.964844 19.746094 56.570312 19.480469 C 56.175781 19.214844 55.640625 19.320312 55.375 19.714844 C 55.109375 20.113281 55.214844 20.648438 55.609375 20.914062 Z M 55.609375 20.914062 "/>
<path style=" stroke:none;fill-rule:nonzero;fill:rgb(10.196078%,16.862745%,37.254902%);fill-opacity:1;" d="M 53.679688 45.648438 L 52.222656 45.089844 C 52.511719 44.8125 52.957031 44.761719 53.304688 44.996094 C 53.535156 45.148438 53.664062 45.390625 53.683594 45.648438 Z M 53.679688 45.648438 "/>
<path style=" stroke:none;fill-rule:nonzero;fill:rgb(10.196078%,16.862745%,37.254902%);fill-opacity:1;" d="M 47.570312 43.222656 C 47.964844 43.484375 48.5 43.382812 48.765625 42.984375 C 49.03125 42.589844 48.925781 42.054688 48.53125 41.789062 C 48.132812 41.523438 47.597656 41.628906 47.332031 42.023438 C 47.066406 42.417969 47.171875 42.957031 47.570312 43.222656 Z M 47.570312 43.222656 "/>
<path style=" stroke:none;fill-rule:nonzero;fill:rgb(10.196078%,16.862745%,37.254902%);fill-opacity:1;" d="M 55.546875 41.648438 C 55.941406 41.914062 56.476562 41.808594 56.742188 41.414062 C 57.007812 41.019531 56.902344 40.484375 56.507812 40.21875 C 56.113281 39.953125 55.578125 40.058594 55.3125 40.453125 C 55.046875 40.847656 55.152344 41.382812 55.546875 41.648438 Z M 55.546875 41.648438 "/>
<path style=" stroke:none;fill-rule:nonzero;fill:rgb(10.196078%,16.862745%,37.254902%);fill-opacity:1;" d="M 50.773438 38.445312 C 51.167969 38.710938 51.703125 38.605469 51.96875 38.210938 C 52.234375 37.816406 52.128906 37.28125 51.734375 37.015625 C 51.339844 36.75 50.800781 36.855469 50.539062 37.25 C 50.273438 37.644531 50.378906 38.179688 50.773438 38.445312 Z M 50.773438 38.445312 "/>
<path style=" stroke:none;fill-rule:nonzero;fill:rgb(10.196078%,16.862745%,37.254902%);fill-opacity:1;" d="M 46.785156 39.230469 C 47.179688 39.496094 47.714844 39.390625 47.980469 38.996094 C 48.246094 38.597656 48.140625 38.0625 47.746094 37.796875 C 47.351562 37.53125 46.816406 37.636719 46.550781 38.035156 C 46.285156 38.429688 46.390625 38.964844 46.785156 39.230469 Z M 46.785156 39.230469 "/>
<path style=" stroke:none;fill-rule:nonzero;fill:rgb(10.196078%,16.862745%,37.254902%);fill-opacity:1;" d="M 51.558594 42.433594 C 51.953125 42.699219 52.488281 42.59375 52.753906 42.199219 C 53.019531 41.804688 52.914062 41.269531 52.519531 41.003906 C 52.125 40.738281 51.585938 40.84375 51.324219 41.238281 C 51.058594 41.632812 51.164062 42.171875 51.558594 42.433594 Z M 51.558594 42.433594 "/>
<path style=" stroke:none;fill-rule:nonzero;fill:rgb(10.196078%,16.862745%,37.254902%);fill-opacity:1;" d="M 49.988281 34.457031 C 50.382812 34.722656 50.917969 34.617188 51.183594 34.21875 C 51.449219 33.824219 51.34375 33.289062 50.949219 33.023438 C 50.554688 32.757812 50.015625 32.863281 49.75 33.257812 C 49.488281 33.65625 49.589844 34.1875 49.988281 34.457031 Z M 49.988281 34.457031 "/>
<path style=" stroke:none;fill-rule:nonzero;fill:rgb(10.196078%,16.862745%,37.254902%);fill-opacity:1;" d="M 54.761719 37.660156 C 55.15625 37.925781 55.691406 37.820312 55.957031 37.425781 C 56.222656 37.027344 56.117188 36.492188 55.722656 36.226562 C 55.328125 35.960938 54.792969 36.066406 54.527344 36.460938 C 54.261719 36.859375 54.367188 37.394531 54.761719 37.660156 Z M 54.761719 37.660156 "/>
<path style=" stroke:none;fill-rule:nonzero;fill:rgb(10.196078%,16.862745%,37.254902%);fill-opacity:1;" d="M 42.796875 40.015625 C 43.191406 40.28125 43.726562 40.175781 43.992188 39.78125 C 44.257812 39.386719 44.152344 38.847656 43.757812 38.582031 C 43.359375 38.320312 42.824219 38.421875 42.558594 38.820312 C 42.296875 39.214844 42.398438 39.75 42.796875 40.015625 Z M 42.796875 40.015625 "/>
<path style=" stroke:none;fill-rule:nonzero;fill:rgb(10.196078%,16.862745%,37.254902%);fill-opacity:1;" d="M 46 35.242188 C 46.394531 35.507812 46.929688 35.402344 47.195312 35.007812 C 47.460938 34.609375 47.355469 34.074219 46.960938 33.808594 C 46.566406 33.542969 46.027344 33.648438 45.765625 34.042969 C 45.5 34.441406 45.605469 34.976562 46 35.242188 Z M 46 35.242188 "/>
<path style=" stroke:none;fill-rule:nonzero;fill:rgb(10.196078%,16.862745%,37.254902%);fill-opacity:1;" d="M 58.75 36.875 C 59.144531 37.140625 59.679688 37.035156 59.945312 36.636719 C 60.210938 36.242188 60.105469 35.707031 59.710938 35.441406 C 59.316406 35.175781 58.78125 35.28125 58.515625 35.675781 C 58.25 36.074219 58.355469 36.609375 58.75 36.875 Z M 58.75 36.875 "/>
<path style=" stroke:none;fill-rule:nonzero;fill:rgb(10.196078%,16.862745%,37.254902%);fill-opacity:1;" d="M 53.976562 33.671875 C 54.371094 33.933594 54.90625 33.832031 55.171875 33.433594 C 55.4375 33.039062 55.332031 32.503906 54.9375 32.238281 C 54.542969 31.972656 54.007812 32.078125 53.742188 32.472656 C 53.476562 32.871094 53.582031 33.40625 53.976562 33.671875 Z M 53.976562 33.671875 "/>
<path style=" stroke:none;fill-rule:nonzero;fill:rgb(10.196078%,16.862745%,37.254902%);fill-opacity:1;" d="M 49.203125 30.464844 C 49.597656 30.730469 50.132812 30.625 50.398438 30.230469 C 50.664062 29.832031 50.558594 29.296875 50.164062 29.03125 C 49.765625 28.765625 49.230469 28.871094 48.964844 29.265625 C 48.703125 29.664062 48.804688 30.199219 49.203125 30.464844 Z M 49.203125 30.464844 "/>
<path style=" stroke:none;fill-rule:nonzero;fill:rgb(10.196078%,16.862745%,37.254902%);fill-opacity:1;" d="M 53.679688 45.648438 L 52.222656 45.089844 C 52.511719 44.8125 52.957031 44.761719 53.304688 44.996094 C 53.535156 45.148438 53.664062 45.390625 53.683594 45.648438 Z M 53.679688 45.648438 "/>
<path style=" stroke:none;fill-rule:nonzero;fill:rgb(10.196078%,16.862745%,37.254902%);fill-opacity:1;" d="M 47.570312 43.222656 C 47.964844 43.484375 48.5 43.382812 48.765625 42.984375 C 49.03125 42.589844 48.925781 42.054688 48.53125 41.789062 C 48.132812 41.523438 47.597656 41.628906 47.332031 42.023438 C 47.066406 42.417969 47.171875 42.957031 47.570312 43.222656 Z M 47.570312 43.222656 "/>
<path style=" stroke:none;fill-rule:nonzero;fill:rgb(10.196078%,16.862745%,37.254902%);fill-opacity:1;" d="M 42.796875 40.019531 C 43.191406 40.28125 43.726562 40.179688 43.992188 39.78125 C 44.257812 39.386719 44.152344 38.847656 43.757812 38.582031 C 43.359375 38.320312 42.824219 38.421875 42.558594 38.820312 C 42.296875 39.214844 42.398438 39.75 42.796875 40.015625 Z M 42.796875 40.019531 "/>
<path style=" stroke:none;fill-rule:nonzero;fill:rgb(10.196078%,16.862745%,37.254902%);fill-opacity:1;" d="M 55.609375 20.914062 C 56.003906 21.179688 56.539062 21.074219 56.804688 20.679688 C 57.070312 20.285156 56.964844 19.746094 56.570312 19.484375 C 56.175781 19.21875 55.640625 19.324219 55.375 19.71875 C 55.109375 20.113281 55.214844 20.648438 55.609375 20.914062 Z M 55.609375 20.914062 "/>
<path style=" stroke:none;fill-rule:nonzero;fill:rgb(10.196078%,16.862745%,37.254902%);fill-opacity:1;" d="M 50.835938 17.710938 C 51.230469 17.976562 51.769531 17.871094 52.03125 17.476562 C 52.296875 17.078125 52.191406 16.542969 51.796875 16.277344 C 51.402344 16.011719 50.867188 16.117188 50.601562 16.511719 C 50.335938 16.910156 50.441406 17.445312 50.835938 17.710938 Z M 50.835938 17.710938 "/>
<path style=" stroke:none;fill-rule:nonzero;fill:rgb(10.196078%,16.862745%,37.254902%);fill-opacity:1;" d="M 58.8125 16.140625 C 59.207031 16.40625 59.746094 16.300781 60.011719 15.90625 C 60.273438 15.507812 60.171875 14.972656 59.773438 14.707031 C 59.378906 14.441406 58.84375 14.546875 58.578125 14.945312 C 58.3125 15.339844 58.417969 15.875 58.8125 16.140625 Z M 58.8125 16.140625 "/>
<path style=" stroke:none;fill-rule:nonzero;fill:rgb(10.196078%,16.862745%,37.254902%);fill-opacity:1;" d="M 55.355469 12.417969 C 55.335938 12.515625 55.292969 12.609375 55.238281 12.699219 C 54.96875 13.09375 54.4375 13.199219 54.042969 12.9375 C 53.667969 12.683594 53.550781 12.195312 53.765625 11.808594 L 55.359375 12.421875 Z M 55.355469 12.417969 "/>
<path style=" stroke:none;fill-rule:nonzero;fill:rgb(10.196078%,16.862745%,37.254902%);fill-opacity:1;" d="M 50.050781 13.71875 C 50.445312 13.984375 50.980469 13.878906 51.246094 13.484375 C 51.511719 13.089844 51.40625 12.550781 51.011719 12.289062 C 50.617188 12.023438 50.082031 12.128906 49.816406 12.523438 C 49.550781 12.917969 49.65625 13.453125 50.050781 13.71875 Z M 50.050781 13.71875 "/>
<path style=" stroke:none;fill-rule:nonzero;fill:rgb(10.196078%,16.862745%,37.254902%);fill-opacity:1;" d="M 54.824219 16.925781 C 55.222656 17.191406 55.757812 17.085938 56.023438 16.6875 C 56.289062 16.292969 56.179688 15.757812 55.785156 15.492188 C 55.390625 15.226562 54.855469 15.332031 54.589844 15.726562 C 54.324219 16.125 54.429688 16.660156 54.824219 16.925781 Z M 54.824219 16.925781 "/>
<path style=" stroke:none;fill-rule:nonzero;fill:rgb(10.196078%,16.862745%,37.254902%);fill-opacity:1;" d="M 46.0625 14.507812 C 46.457031 14.773438 46.992188 14.667969 47.257812 14.269531 C 47.523438 13.875 47.417969 13.339844 47.023438 13.074219 C 46.628906 12.808594 46.089844 12.914062 45.828125 13.308594 C 45.5625 13.707031 45.667969 14.242188 46.0625 14.507812 Z M 46.0625 14.507812 "/>
<path style=" stroke:none;fill-rule:nonzero;fill:rgb(10.196078%,16.862745%,37.254902%);fill-opacity:1;" d="M 49.203125 30.464844 C 49.597656 30.730469 50.132812 30.625 50.398438 30.230469 C 50.664062 29.835938 50.558594 29.296875 50.164062 29.035156 C 49.769531 28.769531 49.234375 28.875 48.96875 29.269531 C 48.703125 29.664062 48.808594 30.199219 49.203125 30.464844 Z M 49.203125 30.464844 "/>
<path style=" stroke:none;fill-rule:nonzero;fill:rgb(10.196078%,16.862745%,37.254902%);fill-opacity:1;" d="M 44.429688 27.261719 C 44.824219 27.527344 45.359375 27.421875 45.625 27.023438 C 45.890625 26.628906 45.785156 26.09375 45.390625 25.828125 C 44.996094 25.5625 44.457031 25.667969 44.195312 26.0625 C 43.929688 26.460938 44.035156 26.996094 44.429688 27.261719 Z M 44.429688 27.261719 "/>
<path style=" stroke:none;fill-rule:nonzero;fill:rgb(10.196078%,16.862745%,37.254902%);fill-opacity:1;" d="M 52.40625 25.691406 C 52.800781 25.957031 53.335938 25.851562 53.601562 25.457031 C 53.867188 25.058594 53.761719 24.523438 53.367188 24.257812 C 52.972656 23.992188 52.433594 24.097656 52.171875 24.492188 C 51.90625 24.890625 52.011719 25.425781 52.40625 25.691406 Z M 52.40625 25.691406 "/>
<path style=" stroke:none;fill-rule:nonzero;fill:rgb(10.196078%,16.862745%,37.254902%);fill-opacity:1;" d="M 47.632812 22.484375 C 48.027344 22.75 48.5625 22.644531 48.828125 22.25 C 49.09375 21.855469 48.988281 21.320312 48.59375 21.054688 C 48.199219 20.789062 47.664062 20.894531 47.398438 21.289062 C 47.132812 21.683594 47.238281 22.222656 47.632812 22.484375 Z M 47.632812 22.484375 "/>
<path style=" stroke:none;fill-rule:nonzero;fill:rgb(10.196078%,16.862745%,37.254902%);fill-opacity:1;" d="M 43.644531 23.269531 C 44.039062 23.535156 44.574219 23.429688 44.839844 23.035156 C 45.105469 22.640625 45 22.101562 44.605469 21.839844 C 44.210938 21.574219 43.671875 21.679688 43.40625 22.074219 C 43.144531 22.46875 43.246094 23.003906 43.644531 23.269531 Z M 43.644531 23.269531 "/>
<path style=" stroke:none;fill-rule:nonzero;fill:rgb(10.196078%,16.862745%,37.254902%);fill-opacity:1;" d="M 48.417969 26.476562 C 48.8125 26.742188 49.347656 26.636719 49.613281 26.238281 C 49.878906 25.84375 49.773438 25.308594 49.378906 25.042969 C 48.984375 24.777344 48.449219 24.882812 48.183594 25.277344 C 47.917969 25.675781 48.023438 26.210938 48.417969 26.476562 Z M 48.417969 26.476562 "/>
<path style=" stroke:none;fill-rule:nonzero;fill:rgb(10.196078%,16.862745%,37.254902%);fill-opacity:1;" d="M 46.847656 18.496094 C 47.242188 18.761719 47.777344 18.65625 48.042969 18.261719 C 48.308594 17.863281 48.203125 17.328125 47.808594 17.0625 C 47.414062 16.796875 46.878906 16.902344 46.613281 17.300781 C 46.347656 17.695312 46.453125 18.230469 46.847656 18.496094 Z M 46.847656 18.496094 "/>
<path style=" stroke:none;fill-rule:nonzero;fill:rgb(10.196078%,16.862745%,37.254902%);fill-opacity:1;" d="M 51.621094 21.699219 C 52.015625 21.964844 52.554688 21.859375 52.816406 21.464844 C 53.082031 21.070312 52.976562 20.535156 52.582031 20.269531 C 52.1875 20.003906 51.652344 20.109375 51.386719 20.503906 C 51.121094 20.898438 51.226562 21.433594 51.621094 21.699219 Z M 51.621094 21.699219 "/>
<path style=" stroke:none;fill-rule:nonzero;fill:rgb(10.196078%,16.862745%,37.254902%);fill-opacity:1;" d="M 39.65625 24.058594 C 40.050781 24.324219 40.585938 24.21875 40.851562 23.820312 C 41.117188 23.425781 41.011719 22.890625 40.617188 22.625 C 40.222656 22.359375 39.683594 22.464844 39.421875 22.859375 C 39.15625 23.257812 39.261719 23.792969 39.65625 24.058594 Z M 39.65625 24.058594 "/>
<path style=" stroke:none;fill-rule:nonzero;fill:rgb(10.196078%,16.862745%,37.254902%);fill-opacity:1;" d="M 42.859375 19.28125 C 43.253906 19.546875 43.789062 19.441406 44.054688 19.046875 C 44.320312 18.648438 44.214844 18.113281 43.820312 17.847656 C 43.421875 17.582031 42.886719 17.6875 42.621094 18.085938 C 42.359375 18.480469 42.460938 19.015625 42.859375 19.28125 Z M 42.859375 19.28125 "/>
<path style=" stroke:none;fill-rule:nonzero;fill:rgb(10.196078%,16.862745%,37.254902%);fill-opacity:1;" d="M 55.609375 20.914062 C 56.003906 21.179688 56.539062 21.074219 56.804688 20.679688 C 57.070312 20.28125 56.964844 19.746094 56.570312 19.480469 C 56.175781 19.214844 55.640625 19.320312 55.375 19.714844 C 55.109375 20.113281 55.214844 20.648438 55.609375 20.914062 Z M 55.609375 20.914062 "/>
<path style=" stroke:none;fill-rule:nonzero;fill:rgb(10.196078%,16.862745%,37.254902%);fill-opacity:1;" d="M 50.835938 17.710938 C 51.230469 17.976562 51.769531 17.871094 52.03125 17.476562 C 52.296875 17.082031 52.191406 16.542969 51.796875 16.28125 C 51.402344 16.015625 50.867188 16.117188 50.601562 16.515625 C 50.335938 16.910156 50.441406 17.445312 50.835938 17.710938 Z M 50.835938 17.710938 "/>
<path style=" stroke:none;fill-rule:nonzero;fill:rgb(10.196078%,16.862745%,37.254902%);fill-opacity:1;" d="M 46.0625 14.507812 C 46.457031 14.773438 46.992188 14.667969 47.257812 14.269531 C 47.523438 13.875 47.417969 13.339844 47.023438 13.074219 C 46.628906 12.808594 46.089844 12.914062 45.828125 13.308594 C 45.5625 13.703125 45.667969 14.238281 46.0625 14.503906 Z M 46.0625 14.507812 "/>
<path style=" stroke:none;fill-rule:nonzero;fill:rgb(10.196078%,16.862745%,37.254902%);fill-opacity:1;" d="M 42.796875 40.015625 C 43.191406 40.28125 43.726562 40.175781 43.992188 39.78125 C 44.257812 39.386719 44.152344 38.847656 43.757812 38.582031 C 43.359375 38.320312 42.824219 38.421875 42.558594 38.820312 C 42.296875 39.214844 42.398438 39.75 42.796875 40.015625 Z M 42.796875 40.015625 "/>
<path style=" stroke:none;fill-rule:nonzero;fill:rgb(10.196078%,16.862745%,37.254902%);fill-opacity:1;" d="M 38.019531 36.8125 C 38.417969 37.078125 38.953125 36.972656 39.21875 36.578125 C 39.484375 36.183594 39.378906 35.644531 38.980469 35.378906 C 38.585938 35.117188 38.050781 35.21875 37.785156 35.617188 C 37.519531 36.011719 37.625 36.546875 38.019531 36.8125 Z M 38.019531 36.8125 "/>
<path style=" stroke:none;fill-rule:nonzero;fill:rgb(10.196078%,16.862745%,37.254902%);fill-opacity:1;" d="M 46 35.242188 C 46.394531 35.507812 46.929688 35.402344 47.195312 35.007812 C 47.460938 34.609375 47.355469 34.074219 46.960938 33.808594 C 46.566406 33.542969 46.027344 33.648438 45.765625 34.042969 C 45.5 34.441406 45.605469 34.976562 46 35.242188 Z M 46 35.242188 "/>
<path style=" stroke:none;fill-rule:nonzero;fill:rgb(10.196078%,16.862745%,37.254902%);fill-opacity:1;" d="M 41.226562 32.035156 C 41.621094 32.300781 42.15625 32.195312 42.421875 31.800781 C 42.6875 31.40625 42.582031 30.871094 42.1875 30.605469 C 41.789062 30.339844 41.253906 30.445312 40.988281 30.839844 C 40.722656 31.234375 40.828125 31.773438 41.226562 32.035156 Z M 41.226562 32.035156 "/>
<path style=" stroke:none;fill-rule:nonzero;fill:rgb(10.196078%,16.862745%,37.254902%);fill-opacity:1;" d="M 37.238281 32.824219 C 37.632812 33.085938 38.167969 32.984375 38.433594 32.585938 C 38.699219 32.191406 38.59375 31.65625 38.199219 31.390625 C 37.804688 31.125 37.265625 31.230469 37 31.625 C 36.738281 32.019531 36.839844 32.558594 37.238281 32.824219 Z M 37.238281 32.824219 "/>
<path style=" stroke:none;fill-rule:nonzero;fill:rgb(10.196078%,16.862745%,37.254902%);fill-opacity:1;" d="M 42.011719 36.027344 C 42.40625 36.289062 42.941406 36.1875 43.207031 35.789062 C 43.472656 35.394531 43.367188 34.859375 42.972656 34.59375 C 42.574219 34.328125 42.039062 34.433594 41.773438 34.828125 C 41.511719 35.222656 41.613281 35.761719 42.011719 36.027344 Z M 42.011719 36.027344 "/>
<path style=" stroke:none;fill-rule:nonzero;fill:rgb(10.196078%,16.862745%,37.254902%);fill-opacity:1;" d="M 40.441406 28.046875 C 40.835938 28.3125 41.371094 28.207031 41.636719 27.8125 C 41.902344 27.414062 41.796875 26.878906 41.402344 26.613281 C 41.003906 26.347656 40.46875 26.453125 40.203125 26.847656 C 39.9375 27.246094 40.042969 27.78125 40.441406 28.046875 Z M 40.441406 28.046875 "/>
<path style=" stroke:none;fill-rule:nonzero;fill:rgb(10.196078%,16.862745%,37.254902%);fill-opacity:1;" d="M 45.214844 31.25 C 45.609375 31.515625 46.144531 31.410156 46.410156 31.015625 C 46.675781 30.621094 46.570312 30.085938 46.175781 29.820312 C 45.78125 29.554688 45.242188 29.660156 44.980469 30.054688 C 44.714844 30.449219 44.820312 30.984375 45.214844 31.25 Z M 45.214844 31.25 "/>
<path style=" stroke:none;fill-rule:nonzero;fill:rgb(10.196078%,16.862745%,37.254902%);fill-opacity:1;" d="M 33.246094 33.609375 C 33.644531 33.875 34.179688 33.769531 34.445312 33.371094 C 34.710938 32.976562 34.605469 32.441406 34.210938 32.175781 C 33.8125 31.910156 33.277344 32.015625 33.011719 32.410156 C 32.746094 32.808594 32.851562 33.34375 33.246094 33.609375 Z M 33.246094 33.609375 "/>
<path style=" stroke:none;fill-rule:nonzero;fill:rgb(10.196078%,16.862745%,37.254902%);fill-opacity:1;" d="M 36.453125 28.832031 C 36.847656 29.097656 37.382812 28.992188 37.648438 28.597656 C 37.914062 28.199219 37.808594 27.664062 37.414062 27.398438 C 37.015625 27.132812 36.480469 27.238281 36.214844 27.636719 C 35.953125 28.03125 36.054688 28.566406 36.453125 28.832031 Z M 36.453125 28.832031 "/>
<path style=" stroke:none;fill-rule:nonzero;fill:rgb(10.196078%,16.862745%,37.254902%);fill-opacity:1;" d="M 49.203125 30.464844 C 49.597656 30.730469 50.132812 30.625 50.398438 30.230469 C 50.664062 29.832031 50.558594 29.296875 50.164062 29.03125 C 49.765625 28.765625 49.230469 28.871094 48.964844 29.265625 C 48.703125 29.664062 48.804688 30.199219 49.203125 30.464844 Z M 49.203125 30.464844 "/>
<path style=" stroke:none;fill-rule:nonzero;fill:rgb(10.196078%,16.862745%,37.254902%);fill-opacity:1;" d="M 44.429688 27.261719 C 44.824219 27.527344 45.359375 27.421875 45.625 27.027344 C 45.890625 26.632812 45.785156 26.09375 45.390625 25.828125 C 44.996094 25.566406 44.457031 25.667969 44.195312 26.066406 C 43.929688 26.460938 44.035156 26.996094 44.429688 27.261719 Z M 44.429688 27.261719 "/>
<path style=" stroke:none;fill-rule:nonzero;fill:rgb(10.196078%,16.862745%,37.254902%);fill-opacity:1;" d="M 39.652344 24.058594 C 40.050781 24.324219 40.585938 24.21875 40.851562 23.820312 C 41.117188 23.425781 41.007812 22.890625 40.617188 22.625 C 40.222656 22.359375 39.683594 22.464844 39.417969 22.859375 C 39.152344 23.253906 39.257812 23.789062 39.652344 24.054688 Z M 39.652344 24.058594 "/>
<path style=" stroke:none;fill-rule:nonzero;fill:rgb(10.196078%,16.862745%,37.254902%);fill-opacity:1;" d="M 34.035156 37.597656 C 34.429688 37.863281 34.964844 37.757812 35.230469 37.363281 C 35.496094 36.964844 35.390625 36.429688 34.996094 36.164062 C 34.597656 35.898438 34.0625 36.003906 33.796875 36.398438 C 33.53125 36.796875 33.636719 37.332031 34.035156 37.597656 Z M 34.035156 37.597656 "/>
<path style=" stroke:none;fill-rule:nonzero;fill:rgb(10.196078%,16.862745%,37.254902%);fill-opacity:1;" d="M 40.078125 40.425781 L 38.472656 39.808594 C 38.496094 39.738281 38.53125 39.667969 38.570312 39.605469 C 38.835938 39.210938 39.371094 39.105469 39.769531 39.371094 C 40.117188 39.601562 40.238281 40.054688 40.078125 40.425781 Z M 40.078125 40.425781 "/>
<path style=" stroke:none;fill-rule:nonzero;fill:rgb(10.196078%,16.862745%,37.254902%);fill-opacity:1;" d="M 42.796875 40.019531 C 43.191406 40.28125 43.726562 40.179688 43.992188 39.78125 C 44.257812 39.382812 44.152344 38.847656 43.757812 38.582031 C 43.359375 38.320312 42.824219 38.421875 42.558594 38.820312 C 42.296875 39.214844 42.398438 39.75 42.796875 40.015625 Z M 42.796875 40.019531 "/>
<path style=" stroke:none;fill-rule:nonzero;fill:rgb(10.196078%,16.862745%,37.254902%);fill-opacity:1;" d="M 38.019531 36.8125 C 38.417969 37.078125 38.953125 36.972656 39.21875 36.578125 C 39.484375 36.183594 39.375 35.644531 38.980469 35.378906 C 38.585938 35.117188 38.050781 35.21875 37.785156 35.617188 C 37.519531 36.011719 37.625 36.546875 38.019531 36.8125 Z M 38.019531 36.8125 "/>
<path style=" stroke:none;fill-rule:nonzero;fill:rgb(10.196078%,16.862745%,37.254902%);fill-opacity:1;" d="M 33.246094 33.609375 C 33.644531 33.875 34.179688 33.769531 34.445312 33.371094 C 34.710938 32.976562 34.601562 32.441406 34.210938 32.175781 C 33.8125 31.910156 33.277344 32.015625 33.011719 32.410156 C 32.746094 32.804688 32.851562 33.339844 33.246094 33.605469 Z M 33.246094 33.609375 "/>
<path style=" stroke:none;fill-rule:nonzero;fill:rgb(10.196078%,16.862745%,37.254902%);fill-opacity:1;" d="M 46.0625 14.507812 C 46.457031 14.773438 46.992188 14.667969 47.257812 14.269531 C 47.523438 13.875 47.417969 13.339844 47.023438 13.074219 C 46.628906 12.808594 46.089844 12.914062 45.828125 13.308594 C 45.5625 13.707031 45.667969 14.242188 46.0625 14.507812 Z M 46.0625 14.507812 "/>
<path style=" stroke:none;fill-rule:nonzero;fill:rgb(10.196078%,16.862745%,37.254902%);fill-opacity:1;" d="M 41.289062 11.300781 C 41.683594 11.566406 42.21875 11.460938 42.484375 11.066406 C 42.75 10.671875 42.644531 10.136719 42.25 9.871094 C 41.855469 9.605469 41.320312 9.710938 41.054688 10.105469 C 40.789062 10.5 40.894531 11.035156 41.289062 11.300781 Z M 41.289062 11.300781 "/>
<path style=" stroke:none;fill-rule:nonzero;fill:rgb(10.196078%,16.862745%,37.254902%);fill-opacity:1;" d="M 41.644531 7.148438 C 41.359375 7.484375 40.875 7.558594 40.503906 7.308594 C 40.246094 7.140625 40.113281 6.851562 40.125 6.566406 Z M 41.644531 7.148438 "/>
<path style=" stroke:none;fill-rule:nonzero;fill:rgb(10.196078%,16.862745%,37.254902%);fill-opacity:1;" d="M 45.277344 10.515625 C 45.671875 10.78125 46.210938 10.675781 46.472656 10.28125 C 46.738281 9.886719 46.632812 9.347656 46.238281 9.085938 C 45.84375 8.820312 45.308594 8.925781 45.042969 9.320312 C 44.777344 9.714844 44.882812 10.25 45.277344 10.515625 Z M 45.277344 10.515625 "/>
<path style=" stroke:none;fill-rule:nonzero;fill:rgb(10.196078%,16.862745%,37.254902%);fill-opacity:1;" d="M 36.515625 8.097656 C 36.910156 8.363281 37.445312 8.257812 37.710938 7.863281 C 37.976562 7.464844 37.871094 6.929688 37.476562 6.664062 C 37.078125 6.398438 36.542969 6.503906 36.277344 6.898438 C 36.015625 7.296875 36.117188 7.832031 36.515625 8.097656 Z M 36.515625 8.097656 "/>
<path style=" stroke:none;fill-rule:nonzero;fill:rgb(10.196078%,16.862745%,37.254902%);fill-opacity:1;" d="M 39.65625 24.058594 C 40.050781 24.324219 40.585938 24.21875 40.851562 23.820312 C 41.117188 23.425781 41.011719 22.890625 40.617188 22.625 C 40.222656 22.359375 39.683594 22.464844 39.421875 22.859375 C 39.15625 23.257812 39.261719 23.792969 39.65625 24.058594 Z M 39.65625 24.058594 "/>
<path style=" stroke:none;fill-rule:nonzero;fill:rgb(10.196078%,16.862745%,37.254902%);fill-opacity:1;" d="M 34.882812 20.851562 C 35.277344 21.117188 35.8125 21.011719 36.078125 20.617188 C 36.34375 20.222656 36.238281 19.683594 35.84375 19.421875 C 35.445312 19.15625 34.910156 19.261719 34.644531 19.65625 C 34.378906 20.050781 34.484375 20.585938 34.882812 20.851562 Z M 34.882812 20.851562 "/>
<path style=" stroke:none;fill-rule:nonzero;fill:rgb(10.196078%,16.862745%,37.254902%);fill-opacity:1;" d="M 42.859375 19.28125 C 43.253906 19.546875 43.789062 19.441406 44.054688 19.046875 C 44.320312 18.648438 44.214844 18.113281 43.820312 17.847656 C 43.421875 17.582031 42.886719 17.6875 42.621094 18.085938 C 42.359375 18.480469 42.460938 19.015625 42.859375 19.28125 Z M 42.859375 19.28125 "/>
<path style=" stroke:none;fill-rule:nonzero;fill:rgb(10.196078%,16.862745%,37.254902%);fill-opacity:1;" d="M 38.085938 16.078125 C 38.480469 16.339844 39.015625 16.238281 39.28125 15.839844 C 39.546875 15.445312 39.441406 14.910156 39.046875 14.644531 C 38.652344 14.378906 38.113281 14.484375 37.847656 14.878906 C 37.585938 15.273438 37.6875 15.8125 38.085938 16.078125 Z M 38.085938 16.078125 "/>
<path style=" stroke:none;fill-rule:nonzero;fill:rgb(10.196078%,16.862745%,37.254902%);fill-opacity:1;" d="M 34.09375 16.863281 C 34.492188 17.128906 35.027344 17.023438 35.292969 16.625 C 35.558594 16.230469 35.449219 15.695312 35.058594 15.429688 C 34.660156 15.164062 34.125 15.269531 33.859375 15.664062 C 33.59375 16.0625 33.699219 16.597656 34.09375 16.863281 Z M 34.09375 16.863281 "/>
<path style=" stroke:none;fill-rule:nonzero;fill:rgb(10.196078%,16.862745%,37.254902%);fill-opacity:1;" d="M 38.871094 20.066406 C 39.265625 20.332031 39.800781 20.226562 40.066406 19.832031 C 40.332031 19.4375 40.226562 18.898438 39.832031 18.632812 C 39.4375 18.371094 38.898438 18.472656 38.636719 18.871094 C 38.371094 19.265625 38.476562 19.800781 38.871094 20.066406 Z M 38.871094 20.066406 "/>
<path style=" stroke:none;fill-rule:nonzero;fill:rgb(10.196078%,16.862745%,37.254902%);fill-opacity:1;" d="M 37.300781 12.085938 C 37.695312 12.351562 38.230469 12.246094 38.496094 11.851562 C 38.761719 11.453125 38.65625 10.917969 38.261719 10.652344 C 37.863281 10.390625 37.328125 10.492188 37.0625 10.890625 C 36.800781 11.285156 36.902344 11.820312 37.300781 12.085938 Z M 37.300781 12.085938 "/>
<path style=" stroke:none;fill-rule:nonzero;fill:rgb(10.196078%,16.862745%,37.254902%);fill-opacity:1;" d="M 42.074219 15.289062 C 42.46875 15.554688 43.003906 15.449219 43.269531 15.054688 C 43.535156 14.660156 43.429688 14.125 43.035156 13.859375 C 42.640625 13.59375 42.105469 13.699219 41.839844 14.09375 C 41.574219 14.488281 41.679688 15.023438 42.074219 15.289062 Z M 42.074219 15.289062 "/>
<path style=" stroke:none;fill-rule:nonzero;fill:rgb(10.196078%,16.862745%,37.254902%);fill-opacity:1;" d="M 30.109375 17.648438 C 30.503906 17.914062 31.039062 17.808594 31.304688 17.414062 C 31.570312 17.015625 31.464844 16.480469 31.070312 16.214844 C 30.671875 15.949219 30.136719 16.054688 29.871094 16.449219 C 29.609375 16.847656 29.710938 17.382812 30.109375 17.648438 Z M 30.109375 17.648438 "/>
<path style=" stroke:none;fill-rule:nonzero;fill:rgb(10.196078%,16.862745%,37.254902%);fill-opacity:1;" d="M 33.308594 12.875 C 33.707031 13.136719 34.242188 13.035156 34.507812 12.636719 C 34.773438 12.242188 34.667969 11.707031 34.269531 11.441406 C 33.875 11.175781 33.339844 11.28125 33.074219 11.675781 C 32.808594 12.070312 32.914062 12.609375 33.308594 12.875 Z M 33.308594 12.875 "/>
<path style=" stroke:none;fill-rule:nonzero;fill:rgb(10.196078%,16.862745%,37.254902%);fill-opacity:1;" d="M 46.0625 14.507812 C 46.457031 14.773438 46.992188 14.667969 47.257812 14.269531 C 47.523438 13.871094 47.417969 13.339844 47.023438 13.074219 C 46.628906 12.808594 46.089844 12.914062 45.828125 13.308594 C 45.5625 13.703125 45.667969 14.238281 46.0625 14.503906 Z M 46.0625 14.507812 "/>
<path style=" stroke:none;fill-rule:nonzero;fill:rgb(10.196078%,16.862745%,37.254902%);fill-opacity:1;" d="M 41.289062 11.300781 C 41.683594 11.566406 42.21875 11.460938 42.484375 11.066406 C 42.75 10.671875 42.644531 10.136719 42.25 9.871094 C 41.855469 9.605469 41.320312 9.710938 41.054688 10.105469 C 40.789062 10.5 40.894531 11.035156 41.289062 11.300781 Z M 41.289062 11.300781 "/>
<path style=" stroke:none;fill-rule:nonzero;fill:rgb(10.196078%,16.862745%,37.254902%);fill-opacity:1;" d="M 36.515625 8.097656 C 36.910156 8.363281 37.445312 8.257812 37.710938 7.859375 C 37.976562 7.464844 37.871094 6.929688 37.476562 6.664062 C 37.078125 6.398438 36.542969 6.503906 36.277344 6.898438 C 36.015625 7.292969 36.117188 7.832031 36.515625 8.09375 Z M 36.515625 8.097656 "/>
<path style=" stroke:none;fill-rule:nonzero;fill:rgb(10.196078%,16.862745%,37.254902%);fill-opacity:1;" d="M 33.246094 33.609375 C 33.644531 33.875 34.179688 33.769531 34.445312 33.371094 C 34.710938 32.976562 34.605469 32.441406 34.210938 32.175781 C 33.8125 31.910156 33.277344 32.015625 33.011719 32.410156 C 32.746094 32.808594 32.851562 33.34375 33.246094 33.609375 Z M 33.246094 33.609375 "/>
<path style=" stroke:none;fill-rule:nonzero;fill:rgb(10.196078%,16.862745%,37.254902%);fill-opacity:1;" d="M 36.453125 28.832031 C 36.847656 29.097656 37.382812 28.992188 37.648438 28.597656 C 37.914062 28.199219 37.808594 27.664062 37.414062 27.398438 C 37.015625 27.132812 36.480469 27.238281 36.214844 27.636719 C 35.953125 28.03125 36.054688 28.566406 36.453125 28.832031 Z M 36.453125 28.832031 "/>
<path style=" stroke:none;fill-rule:nonzero;fill:rgb(10.196078%,16.862745%,37.254902%);fill-opacity:1;" d="M 31.675781 25.628906 C 32.074219 25.890625 32.609375 25.789062 32.875 25.390625 C 33.140625 24.996094 33.035156 24.460938 32.636719 24.195312 C 32.242188 23.929688 31.707031 24.035156 31.441406 24.429688 C 31.175781 24.824219 31.28125 25.363281 31.675781 25.628906 Z M 31.675781 25.628906 "/>
<path style=" stroke:none;fill-rule:nonzero;fill:rgb(10.196078%,16.862745%,37.254902%);fill-opacity:1;" d="M 32.460938 29.617188 C 32.859375 29.882812 33.394531 29.777344 33.660156 29.382812 C 33.925781 28.988281 33.816406 28.449219 33.421875 28.183594 C 33.027344 27.921875 32.492188 28.023438 32.226562 28.421875 C 31.960938 28.816406 32.066406 29.351562 32.460938 29.617188 Z M 32.460938 29.617188 "/>
<path style=" stroke:none;fill-rule:nonzero;fill:rgb(10.196078%,16.862745%,37.254902%);fill-opacity:1;" d="M 30.890625 21.636719 C 31.289062 21.902344 31.824219 21.796875 32.089844 21.402344 C 32.351562 21.003906 32.25 20.46875 31.851562 20.203125 C 31.457031 19.9375 30.921875 20.042969 30.65625 20.441406 C 30.390625 20.835938 30.496094 21.371094 30.890625 21.636719 Z M 30.890625 21.636719 "/>
<path style=" stroke:none;fill-rule:nonzero;fill:rgb(10.196078%,16.862745%,37.254902%);fill-opacity:1;" d="M 35.667969 24.839844 C 36.0625 25.105469 36.597656 25 36.863281 24.605469 C 37.128906 24.210938 37.023438 23.675781 36.628906 23.410156 C 36.230469 23.144531 35.695312 23.25 35.429688 23.644531 C 35.164062 24.039062 35.269531 24.574219 35.667969 24.839844 Z M 35.667969 24.839844 "/>
<path style=" stroke:none;fill-rule:nonzero;fill:rgb(10.196078%,16.862745%,37.254902%);fill-opacity:1;" d="M 39.652344 24.058594 C 40.050781 24.324219 40.585938 24.21875 40.851562 23.820312 C 41.117188 23.421875 41.007812 22.890625 40.617188 22.625 C 40.21875 22.359375 39.683594 22.464844 39.417969 22.859375 C 39.152344 23.253906 39.257812 23.789062 39.652344 24.054688 Z M 39.652344 24.058594 "/>
<path style=" stroke:none;fill-rule:nonzero;fill:rgb(10.196078%,16.862745%,37.254902%);fill-opacity:1;" d="M 34.882812 20.851562 C 35.277344 21.117188 35.8125 21.011719 36.078125 20.617188 C 36.34375 20.222656 36.234375 19.683594 35.84375 19.421875 C 35.445312 19.15625 34.910156 19.261719 34.644531 19.65625 C 34.378906 20.050781 34.484375 20.585938 34.882812 20.851562 Z M 34.882812 20.851562 "/>
<path style=" stroke:none;fill-rule:nonzero;fill:rgb(10.196078%,16.862745%,37.254902%);fill-opacity:1;" d="M 30.105469 17.648438 C 30.503906 17.914062 31.039062 17.808594 31.304688 17.410156 C 31.566406 17.015625 31.460938 16.480469 31.066406 16.214844 C 30.671875 15.949219 30.136719 16.054688 29.871094 16.449219 C 29.605469 16.84375 29.710938 17.382812 30.105469 17.644531 Z M 30.105469 17.648438 "/>
<path style=" stroke:none;fill-rule:nonzero;fill:rgb(10.196078%,16.862745%,37.254902%);fill-opacity:1;" d="M 33.246094 33.609375 C 33.644531 33.875 34.179688 33.769531 34.445312 33.371094 C 34.710938 32.976562 34.601562 32.441406 34.210938 32.175781 C 33.8125 31.910156 33.277344 32.015625 33.011719 32.410156 C 32.746094 32.804688 32.851562 33.339844 33.246094 33.605469 Z M 33.246094 33.609375 "/>
<path style=" stroke:none;fill-rule:nonzero;fill:rgb(10.196078%,16.862745%,37.254902%);fill-opacity:1;" d="M 36.515625 8.097656 C 36.910156 8.363281 37.445312 8.257812 37.710938 7.863281 C 37.976562 7.464844 37.871094 6.929688 37.476562 6.664062 C 37.078125 6.398438 36.542969 6.503906 36.277344 6.898438 C 36.015625 7.296875 36.117188 7.832031 36.515625 8.097656 Z M 36.515625 8.097656 "/>
<path style=" stroke:none;fill-rule:nonzero;fill:rgb(10.196078%,16.862745%,37.254902%);fill-opacity:1;" d="M 32.9375 4.65625 C 32.875 4.75 32.796875 4.824219 32.710938 4.886719 C 32.652344 4.925781 32.585938 4.957031 32.523438 4.984375 C 32.347656 5.050781 32.15625 5.054688 31.972656 5 C 31.890625 4.976562 31.816406 4.9375 31.742188 4.890625 C 31.34375 4.625 31.242188 4.089844 31.503906 3.695312 C 31.59375 3.554688 31.722656 3.453125 31.863281 3.390625 L 33.003906 3.832031 C 33.003906 3.8125 32.992188 3.796875 32.984375 3.777344 C 32.992188 3.792969 33 3.808594 33.007812 3.832031 C 33.121094 4.09375 33.105469 4.402344 32.9375 4.65625 Z M 32.9375 4.65625 "/>
<path style=" stroke:none;fill-rule:nonzero;fill:rgb(10.196078%,16.862745%,37.254902%);fill-opacity:1;" d="M 27.703125 1.792969 C 27.625 1.816406 27.542969 1.832031 27.460938 1.832031 L 27.441406 1.691406 L 27.707031 1.792969 Z M 27.703125 1.792969 "/>
<path style=" stroke:none;fill-rule:nonzero;fill:rgb(10.196078%,16.862745%,37.254902%);fill-opacity:1;" d="M 30.109375 17.648438 C 30.503906 17.914062 31.039062 17.808594 31.304688 17.414062 C 31.570312 17.015625 31.464844 16.480469 31.070312 16.214844 C 30.671875 15.949219 30.136719 16.054688 29.871094 16.449219 C 29.609375 16.847656 29.710938 17.382812 30.109375 17.648438 Z M 30.109375 17.648438 "/>
<path style=" stroke:none;fill-rule:nonzero;fill:rgb(10.196078%,16.862745%,37.254902%);fill-opacity:1;" d="M 33.308594 12.875 C 33.707031 13.136719 34.242188 13.035156 34.507812 12.636719 C 34.773438 12.242188 34.667969 11.707031 34.269531 11.441406 C 33.875 11.175781 33.339844 11.28125 33.074219 11.675781 C 32.808594 12.070312 32.914062 12.609375 33.308594 12.875 Z M 33.308594 12.875 "/>
<path style=" stroke:none;fill-rule:nonzero;fill:rgb(10.196078%,16.862745%,37.254902%);fill-opacity:1;" d="M 29.730469 9.433594 C 29.472656 9.820312 28.945312 9.933594 28.550781 9.675781 L 28.371094 8.378906 C 28.652344 8.0625 29.132812 7.992188 29.5 8.238281 C 29.890625 8.503906 30 9.039062 29.730469 9.433594 Z M 29.730469 9.433594 "/>
<path style=" stroke:none;fill-rule:nonzero;fill:rgb(10.196078%,16.862745%,37.254902%);fill-opacity:1;" d="M 30.519531 13.421875 C 30.253906 13.820312 29.714844 13.921875 29.324219 13.660156 C 29.214844 13.585938 29.132812 13.5 29.066406 13.394531 L 29.066406 13.386719 L 28.972656 12.710938 L 28.972656 12.707031 C 28.996094 12.621094 29.035156 12.539062 29.085938 12.460938 C 29.351562 12.066406 29.886719 11.960938 30.28125 12.226562 C 30.675781 12.492188 30.78125 13.027344 30.519531 13.421875 Z M 30.519531 13.421875 "/>
<path style=" stroke:none;fill-rule:nonzero;fill:rgb(10.196078%,16.862745%,37.254902%);fill-opacity:1;" d="M 28.949219 5.441406 C 28.738281 5.753906 28.355469 5.886719 28.011719 5.796875 L 27.792969 4.21875 C 28.070312 4.054688 28.429688 4.054688 28.714844 4.246094 C 29.109375 4.511719 29.214844 5.046875 28.949219 5.441406 Z M 28.949219 5.441406 "/>
<path style=" stroke:none;fill-rule:nonzero;fill:rgb(10.196078%,16.862745%,37.254902%);fill-opacity:1;" d="M 32.527344 8.882812 C 32.921875 9.148438 33.457031 9.042969 33.722656 8.648438 C 33.988281 8.25 33.882812 7.714844 33.488281 7.449219 C 33.09375 7.183594 32.554688 7.289062 32.292969 7.6875 C 32.027344 8.082031 32.132812 8.617188 32.527344 8.882812 Z M 32.527344 8.882812 "/>
<path style=" stroke:none;fill-rule:nonzero;fill:rgb(10.196078%,16.862745%,37.254902%);fill-opacity:1;" d="M 36.515625 8.097656 C 36.910156 8.363281 37.445312 8.257812 37.710938 7.859375 C 37.976562 7.464844 37.871094 6.929688 37.476562 6.664062 C 37.078125 6.398438 36.542969 6.503906 36.277344 6.898438 C 36.015625 7.292969 36.117188 7.832031 36.515625 8.09375 Z M 36.515625 8.097656 "/>
<path style=" stroke:none;fill-rule:nonzero;fill:rgb(10.196078%,16.862745%,37.254902%);fill-opacity:1;" d="M 32.9375 4.65625 C 32.875 4.75 32.796875 4.824219 32.710938 4.886719 C 32.652344 4.925781 32.585938 4.957031 32.523438 4.984375 C 32.347656 5.050781 32.15625 5.058594 31.972656 5 C 31.890625 4.980469 31.816406 4.941406 31.742188 4.890625 C 31.34375 4.625 31.242188 4.089844 31.503906 3.695312 C 31.59375 3.554688 31.722656 3.453125 31.863281 3.390625 L 33.003906 3.832031 L 33.007812 3.832031 C 33.121094 4.09375 33.105469 4.402344 32.9375 4.65625 Z M 32.9375 4.65625 "/>
<path style=" stroke:none;fill-rule:nonzero;fill:rgb(10.196078%,16.862745%,37.254902%);fill-opacity:1;" d="M 27.703125 1.792969 C 27.625 1.816406 27.542969 1.832031 27.460938 1.832031 L 27.441406 1.691406 L 27.707031 1.792969 Z M 27.703125 1.792969 "/>
<path style=" stroke:none;fill-rule:nonzero;fill:rgb(10.196078%,16.862745%,37.254902%);fill-opacity:1;" d="M 30.105469 17.648438 C 30.503906 17.914062 31.039062 17.808594 31.304688 17.410156 C 31.566406 17.015625 31.460938 16.480469 31.066406 16.214844 C 30.671875 15.949219 30.136719 16.054688 29.871094 16.449219 C 29.605469 16.84375 29.710938 17.382812 30.105469 17.644531 Z M 30.105469 17.648438 "/>
<path style=" stroke:none;fill-rule:nonzero;fill:rgb(10.196078%,16.862745%,37.254902%);fill-opacity:1;" d="M 60.363281 86.105469 L 66.144531 50.4375 L 32.144531 62.640625 L 26.363281 98.308594 Z M 60.363281 86.105469 "/>
<path style=" stroke:none;fill-rule:nonzero;fill:rgb(10.196078%,16.862745%,37.254902%);fill-opacity:1;" d="M 96.296875 25.300781 L 81.703125 25.300781 L 81.703125 31.417969 L 95.621094 31.417969 L 95.621094 35.957031 L 81.703125 35.957031 L 81.703125 46.988281 L 76.75 46.988281 L 76.75 20.722656 L 96.296875 20.722656 Z M 96.296875 25.300781 "/>
<path style=" stroke:none;fill-rule:nonzero;fill:rgb(10.196078%,16.862745%,37.254902%);fill-opacity:1;" d="M 115.011719 28.566406 L 115.011719 33.070312 C 114.300781 32.808594 113.324219 32.691406 112.085938 32.691406 C 107.773438 32.691406 105.449219 35.019531 105.449219 39.371094 L 105.449219 46.988281 L 100.683594 46.988281 L 100.683594 28.601562 L 105.449219 28.601562 L 105.449219 34.269531 C 106.421875 30.292969 108.75 28.300781 112.386719 28.300781 C 113.625 28.300781 114.488281 28.375 115.011719 28.5625 Z M 115.011719 28.566406 "/>
<path style=" stroke:none;fill-rule:nonzero;fill:rgb(10.196078%,16.862745%,37.254902%);fill-opacity:1;" d="M 136.324219 39.296875 L 121.316406 39.296875 C 121.730469 42.1875 123.304688 43.386719 126.871094 43.386719 C 129.835938 43.386719 130.847656 42.785156 131.785156 40.796875 L 135.949219 42.5625 C 134.597656 45.75 131.558594 47.363281 126.796875 47.363281 C 123.605469 47.363281 121.09375 46.5 119.253906 44.773438 C 117.378906 43.085938 116.441406 40.796875 116.441406 37.90625 C 116.441406 35.015625 117.378906 32.652344 119.214844 30.890625 C 121.054688 29.125 123.53125 28.226562 126.605469 28.226562 C 129.683594 28.226562 131.972656 29.050781 133.734375 30.738281 C 135.5 32.429688 136.359375 34.71875 136.359375 37.53125 C 136.359375 38.207031 136.359375 38.808594 136.324219 39.296875 Z M 121.355469 36.03125 L 131.671875 36.03125 C 131.484375 33.179688 129.980469 32.054688 126.644531 32.054688 C 123.304688 32.054688 121.765625 33.292969 121.355469 36.03125 Z M 121.355469 36.03125 "/>
<path style=" stroke:none;fill-rule:nonzero;fill:rgb(10.196078%,16.862745%,37.254902%);fill-opacity:1;" d="M 158.980469 39.296875 L 143.976562 39.296875 C 144.386719 42.1875 145.964844 43.386719 149.527344 43.386719 C 152.492188 43.386719 153.503906 42.785156 154.441406 40.796875 L 158.605469 42.5625 C 157.253906 45.75 154.21875 47.363281 149.453125 47.363281 C 146.265625 47.363281 143.75 46.5 141.914062 44.773438 C 140.039062 43.085938 139.097656 40.796875 139.097656 37.90625 C 139.097656 35.015625 140.039062 32.652344 141.875 30.890625 C 143.714844 29.125 146.1875 28.226562 149.265625 28.226562 C 152.339844 28.226562 154.628906 29.050781 156.390625 30.738281 C 158.15625 32.429688 159.019531 34.71875 159.019531 37.53125 C 159.019531 38.207031 159.019531 38.808594 158.980469 39.296875 Z M 144.011719 36.03125 L 154.328125 36.03125 C 154.140625 33.179688 152.640625 32.054688 149.300781 32.054688 C 145.964844 32.054688 144.425781 33.292969 144.011719 36.03125 Z M 144.011719 36.03125 "/>
<path style=" stroke:none;fill-rule:nonzero;fill:rgb(10.196078%,16.862745%,37.254902%);fill-opacity:1;" d="M 165.472656 25.523438 C 164.457031 25.523438 163.707031 25.261719 163.183594 24.738281 C 162.621094 24.210938 162.359375 23.460938 162.359375 22.484375 C 162.359375 20.535156 163.40625 19.558594 165.472656 19.558594 C 167.535156 19.558594 168.582031 20.644531 168.582031 22.484375 C 168.582031 23.460938 168.320312 24.210938 167.796875 24.738281 C 167.234375 25.261719 166.484375 25.523438 165.46875 25.523438 Z M 163.109375 46.988281 L 163.109375 28.601562 L 167.871094 28.601562 L 167.871094 46.988281 Z M 163.109375 46.988281 "/>
<path style=" stroke:none;fill-rule:nonzero;fill:rgb(10.196078%,16.862745%,37.254902%);fill-opacity:1;" d="M 192.59375 36.371094 L 192.59375 46.988281 L 187.828125 46.988281 L 187.828125 37.382812 C 187.828125 33.929688 186.441406 32.542969 183.402344 32.542969 C 179.800781 32.542969 178 34.417969 178 38.207031 L 178 46.988281 L 173.234375 46.988281 L 173.234375 28.601562 L 178 28.601562 L 178 32.914062 C 179.011719 29.800781 181.375 28.226562 185.089844 28.226562 C 190.082031 28.226562 192.59375 30.925781 192.59375 36.367188 Z M 192.59375 36.371094 "/>
<path style=" stroke:none;fill-rule:nonzero;fill:rgb(10.196078%,16.862745%,37.254902%);fill-opacity:1;" d="M 212.328125 28.601562 L 217.09375 28.601562 L 217.09375 44.738281 C 217.09375 50.441406 213.453125 53.746094 206.585938 53.746094 C 200.847656 53.746094 197.507812 52.09375 196.570312 48.792969 L 201.148438 46.875 C 201.484375 48.078125 202.046875 48.867188 202.835938 49.277344 C 203.625 49.691406 204.972656 49.878906 206.8125 49.878906 C 210.828125 49.878906 212.328125 48.640625 212.328125 45.601562 L 212.328125 42.035156 C 211.015625 44.625 208.613281 45.9375 205.125 45.9375 C 199.570312 45.9375 196.421875 42.449219 196.421875 37.042969 C 196.421875 31.640625 199.460938 28.261719 204.976562 28.261719 C 208.539062 28.261719 210.976562 29.613281 212.328125 32.277344 Z M 212.515625 37.082031 C 212.515625 33.96875 210.640625 32.429688 206.851562 32.429688 C 202.835938 32.429688 201.261719 33.894531 201.261719 37.082031 C 201.261719 40.273438 202.796875 41.734375 206.8125 41.734375 C 210.601562 41.734375 212.515625 40.199219 212.515625 37.082031 Z M 212.515625 37.082031 "/>
<path style=" stroke:none;fill-rule:nonzero;fill:rgb(10.196078%,16.862745%,37.254902%);fill-opacity:1;" d="M 121.457031 70.683594 L 106.453125 70.683594 C 106.863281 73.574219 108.441406 74.773438 112.003906 74.773438 C 114.96875 74.773438 115.980469 74.171875 116.921875 72.183594 L 121.082031 73.949219 C 119.734375 77.136719 116.695312 78.75 111.929688 78.75 C 108.742188 78.75 106.226562 77.886719 104.390625 76.160156 C 102.515625 74.472656 101.574219 72.183594 101.574219 69.292969 C 101.574219 66.402344 102.515625 64.039062 104.351562 62.277344 C 106.191406 60.511719 108.664062 59.609375 111.742188 59.609375 C 114.816406 59.609375 117.105469 60.4375 118.871094 62.125 C 120.632812 63.8125 121.496094 66.101562 121.496094 68.917969 C 121.496094 69.59375 121.496094 70.195312 121.457031 70.683594 Z M 106.488281 67.417969 L 116.804688 67.417969 C 116.617188 64.566406 115.117188 63.441406 111.777344 63.441406 C 108.441406 63.441406 106.902344 64.679688 106.488281 67.417969 Z M 106.488281 67.417969 "/>
<path style=" stroke:none;fill-rule:nonzero;fill:rgb(10.196078%,16.862745%,37.254902%);fill-opacity:1;" d="M 139.050781 64.191406 L 132.789062 64.191406 L 132.789062 74.171875 L 138.601562 74.171875 L 138.601562 78.375 L 133.726562 78.375 C 130.3125 78.375 128.023438 76.085938 128.023438 72.671875 L 128.023438 64.191406 L 123.558594 64.191406 L 123.558594 59.988281 L 128.023438 59.988281 L 128.023438 54.507812 L 132.789062 54.507812 L 132.789062 59.988281 L 139.054688 59.988281 L 139.054688 64.191406 Z M 139.050781 64.191406 "/>
<path style=" stroke:none;fill-rule:nonzero;fill:rgb(10.196078%,16.862745%,37.254902%);fill-opacity:1;" d="M 157.246094 59.988281 L 162.011719 59.988281 L 162.011719 78.375 L 157.246094 78.375 L 157.246094 73.949219 C 156.273438 77.136719 153.910156 78.75 150.121094 78.75 C 145.128906 78.75 142.652344 76.050781 142.652344 70.605469 L 142.652344 59.988281 L 147.417969 59.988281 L 147.417969 69.59375 C 147.417969 73.046875 148.808594 74.433594 151.808594 74.433594 C 155.445312 74.433594 157.246094 72.558594 157.246094 68.769531 Z M 157.246094 59.988281 "/>
<path style=" stroke:none;fill-rule:nonzero;fill:rgb(10.196078%,16.862745%,37.254902%);fill-opacity:1;" d="M 181.742188 59.953125 L 181.742188 64.453125 C 181.03125 64.191406 180.054688 64.078125 178.816406 64.078125 C 174.503906 64.078125 172.175781 66.40625 172.175781 70.757812 L 172.175781 78.375 L 167.414062 78.375 L 167.414062 59.988281 L 172.175781 59.988281 L 172.175781 65.65625 C 173.152344 61.675781 175.480469 59.6875 179.117188 59.6875 C 180.355469 59.6875 181.21875 59.761719 181.742188 59.949219 Z M 181.742188 59.953125 "/>
<path style=" stroke:none;fill-rule:nonzero;fill:rgb(10.196078%,16.862745%,37.254902%);fill-opacity:1;" d="M 204.515625 67.757812 L 204.515625 78.375 L 199.75 78.375 L 199.75 68.769531 C 199.75 65.316406 198.363281 63.925781 195.324219 63.925781 C 191.722656 63.925781 189.921875 65.804688 189.921875 69.59375 L 189.921875 78.375 L 185.15625 78.375 L 185.15625 59.988281 L 189.921875 59.988281 L 189.921875 64.300781 C 190.933594 61.1875 193.296875 59.609375 197.011719 59.609375 C 202 59.609375 204.515625 62.3125 204.515625 67.753906 Z M 204.515625 67.757812 "/>
<path style=" stroke:none;fill-rule:nonzero;fill:rgb(10.196078%,16.862745%,37.254902%);fill-opacity:1;" d="M 208.078125 73.3125 L 212.730469 72.074219 C 213.140625 74.363281 214.53125 75.113281 217.496094 75.113281 C 220.046875 75.113281 221.320312 74.476562 221.320312 73.238281 C 221.320312 72 220.496094 71.546875 218.09375 71.210938 L 214.417969 70.6875 C 210.816406 70.199219 208.601562 68.246094 208.601562 65.207031 C 208.601562 61.714844 211.644531 59.613281 216.78125 59.613281 C 221.921875 59.613281 224.921875 61.566406 225.632812 65.019531 L 221.019531 66.035156 C 220.683594 63.746094 219.519531 63.066406 216.96875 63.066406 C 214.605469 63.066406 213.40625 63.707031 213.40625 64.984375 C 213.40625 66.070312 214.117188 66.632812 216.03125 66.898438 L 220.53125 67.460938 C 224.019531 67.871094 226.085938 69.75 226.085938 72.714844 C 226.085938 76.503906 222.785156 78.757812 217.195312 78.757812 C 212.203125 78.757812 208.714844 76.46875 208.078125 73.316406 Z M 208.078125 73.3125 "/>
<path style=" stroke:none;fill-rule:nonzero;fill:rgb(10.196078%,16.862745%,37.254902%);fill-opacity:1;" d="M 73.699219 78.535156 L 78.425781 70.128906 L 80.636719 67.648438 C 76.585938 66.785156 74.183594 64.007812 74.183594 60.070312 C 74.183594 55.378906 77.671875 52.265625 83.226562 52.265625 L 97.03125 52.265625 L 97.03125 78.53125 L 92.117188 78.53125 L 92.117188 67.875 L 84.460938 67.875 L 79.546875 78.53125 L 73.695312 78.53125 Z M 83.488281 56.617188 C 80.375 56.617188 79.328125 57.519531 79.328125 60.105469 C 79.328125 62.695312 80.453125 63.671875 83.488281 63.671875 L 92.117188 63.671875 L 92.117188 56.617188 Z M 83.488281 56.617188 "/>
<path style=" stroke:none;fill-rule:nonzero;fill:rgb(91.764706%,28.235294%,52.54902%);fill-opacity:1;" d="M 35.027344 32.082031 L 66.144531 50.4375 L 35.027344 68.792969 L 3.914062 50.4375 Z M 35.027344 32.082031 "/>
</g>
</svg>
