<svg width="170" height="37" viewBox="0 0 170 37" fill="none" xmlns="http://www.w3.org/2000/svg">
<path d="M113.546 9.46094H110.133V28.305H113.546V9.46094Z" fill="#051C40"/>
<path d="M128.09 16.6919C127.456 16.0576 126.683 15.5386 125.795 15.1696C124.896 14.789 123.904 14.6045 122.831 14.6045C121.747 14.6045 120.767 14.789 119.868 15.1696C118.968 15.5502 118.207 16.0576 117.573 16.6919C116.938 17.3377 116.443 18.0758 116.085 18.9407C115.727 19.7941 115.543 20.7052 115.543 21.6624C115.543 22.6195 115.727 23.5306 116.085 24.384C116.443 25.2374 116.938 25.9986 117.573 26.6444C118.207 27.2902 118.98 27.8092 119.868 28.1782C120.767 28.5588 121.747 28.7433 122.831 28.7433C123.916 28.7433 124.896 28.5588 125.795 28.1782C126.695 27.7976 127.456 27.2902 128.09 26.6444C128.725 25.9986 129.22 25.2374 129.578 24.384C129.935 23.5306 130.108 22.6195 130.108 21.6624C130.108 20.7052 129.924 19.7941 129.578 18.9407C129.232 18.0873 128.725 17.3377 128.09 16.6919ZM126.441 23.1385C126.291 23.6229 126.049 24.0842 125.738 24.4993C125.415 24.9145 125.023 25.2489 124.538 25.5027C124.054 25.7564 123.489 25.8832 122.831 25.8832C122.174 25.8832 121.609 25.7564 121.125 25.5027C120.64 25.2489 120.237 24.9145 119.925 24.4993C119.602 24.0842 119.372 23.6344 119.222 23.1385C119.072 22.6541 118.991 22.1582 118.991 21.6739C118.991 21.2011 119.072 20.7167 119.222 20.2208C119.372 19.7249 119.614 19.2751 119.925 18.86C120.248 18.4563 120.64 18.1219 121.125 17.8682C121.609 17.6145 122.174 17.4876 122.831 17.4876C123.489 17.4876 124.054 17.6145 124.538 17.8682C125.023 18.1219 125.426 18.4563 125.738 18.86C126.061 19.2636 126.291 19.7134 126.441 20.2208C126.591 20.7167 126.672 21.2011 126.672 21.6739C126.672 22.1582 126.603 22.6426 126.441 23.1385Z" fill="#051C40"/>
<path d="M141.283 22.2394C141.283 22.7238 141.202 23.1851 141.041 23.6118C140.879 24.0385 140.649 24.4075 140.36 24.7304C140.072 25.0533 139.726 25.2955 139.322 25.48C138.919 25.6645 138.48 25.7453 138.019 25.7453C137.27 25.7453 136.658 25.5146 136.185 25.0533C135.713 24.592 135.482 23.9347 135.482 23.0928V15.0547H132.068V23.1043C132.068 24.7765 132.507 26.1143 133.395 27.1061C134.283 28.0979 135.574 28.5938 137.269 28.5938C137.812 28.5938 138.296 28.5361 138.711 28.4208C139.138 28.3055 139.507 28.1671 139.841 27.9826C140.164 27.798 140.452 27.6135 140.706 27.4059C140.96 27.1984 141.167 27.0023 141.34 26.8178L141.433 28.317H144.696V15.0547H141.283V22.2394Z" fill="#051C40"/>
<path d="M156.782 28.305H160.081V9.46094H156.702V15.3656C156.448 15.2733 156.229 15.181 156.033 15.1118C155.837 15.0311 155.629 14.9734 155.398 14.9273C155.168 14.8812 154.903 14.8351 154.614 14.812C154.326 14.7889 153.957 14.7659 153.519 14.7659C153.196 14.7659 152.804 14.812 152.365 14.8927C151.916 14.9734 151.466 15.1234 150.993 15.3194C150.52 15.5155 150.059 15.7692 149.586 16.069C149.125 16.3689 148.698 16.7494 148.317 17.1992C147.856 17.7412 147.464 18.4101 147.153 19.1943C146.841 19.9785 146.691 20.8896 146.691 21.916C146.691 23.0116 146.864 23.9803 147.21 24.8337C147.556 25.6756 148.006 26.3906 148.571 26.9787C149.125 27.5669 149.771 28.0051 150.486 28.305C151.201 28.6048 151.916 28.7547 152.654 28.7547C153.173 28.7547 153.645 28.6971 154.061 28.5817C154.476 28.4664 154.845 28.328 155.191 28.155C155.525 27.9821 155.825 27.7975 156.067 27.59C156.321 27.3824 156.529 27.1863 156.702 27.0018L156.782 28.305ZM155.975 24.7184C155.721 25.0643 155.398 25.3411 154.995 25.5487C154.591 25.7678 154.095 25.8716 153.519 25.8716C152.423 25.8716 151.581 25.491 151.005 24.7414C150.428 23.9918 150.14 23.0462 150.14 21.916C150.14 21.374 150.22 20.8435 150.382 20.3476C150.543 19.8517 150.774 19.4134 151.062 19.0329C151.397 18.6177 151.777 18.2833 152.215 18.0295C152.654 17.7758 153.219 17.649 153.888 17.649C154.568 17.649 155.122 17.7066 155.548 17.8104C155.987 17.9142 156.367 18.0987 156.69 18.364V22.4349C156.69 22.8155 156.632 23.2076 156.517 23.6113C156.413 24.0149 156.229 24.3839 155.975 24.7184Z" fill="#051C40"/>
<path d="M57.6148 18.2371C58.1453 17.3261 58.4106 16.2766 58.4106 15.0888C58.4106 14.4891 58.2953 13.8548 58.0531 13.1975C57.8109 12.5401 57.4303 11.9289 56.9114 11.3753C56.3924 10.8102 55.7005 10.3605 54.8586 10.003C54.0052 9.64546 52.9788 9.46094 51.7679 9.46094H45.3789V28.305H48.8848V20.8665H51.6295L55.539 28.305H59.6446L55.193 20.4168C56.2771 19.8747 57.0843 19.1482 57.6148 18.2371ZM53.9475 17.1416C53.4401 17.672 52.7135 17.9373 51.791 17.9373H48.8732V12.4824H51.791C52.6559 12.4824 53.3594 12.7362 53.9014 13.2436C54.4434 13.751 54.7087 14.4084 54.7087 15.2272C54.7087 15.9768 54.4549 16.6226 53.9475 17.1416Z" fill="#051C40"/>
<path d="M72.4102 17.0032C71.8913 16.2882 71.1993 15.7116 70.3459 15.2734C69.4925 14.8351 68.4431 14.6045 67.2091 14.6045C66.1827 14.6045 65.2601 14.7775 64.4182 15.135C63.5764 15.4925 62.8614 15.9884 62.2501 16.5996C61.6389 17.2224 61.1776 17.9489 60.8316 18.7908C60.4972 19.6326 60.3242 20.5322 60.3242 21.5124C60.3242 22.5849 60.4972 23.5652 60.8316 24.4532C61.1661 25.3412 61.6504 26.1023 62.2732 26.7251C62.896 27.3594 63.6571 27.8553 64.5451 28.2128C65.4331 28.5703 66.4134 28.7548 67.4974 28.7548C68.5584 28.7548 69.4695 28.6395 70.2306 28.4204C70.9917 28.1897 71.626 27.936 72.1104 27.6592C72.6063 27.3825 72.9753 27.1057 73.2406 26.852C73.5058 26.5982 73.6557 26.4368 73.7134 26.3791L71.8567 24.3494C71.7413 24.4647 71.5684 24.6031 71.3492 24.7876C71.1301 24.9722 70.8418 25.1336 70.4958 25.2951C70.1499 25.4565 69.7347 25.5949 69.2388 25.7218C68.7429 25.8486 68.1778 25.9063 67.5205 25.9063C67.0822 25.9063 66.6325 25.8371 66.1712 25.6756C65.7214 25.5257 65.3178 25.3066 64.9603 25.0298C64.6028 24.7415 64.3144 24.4071 64.0953 24.015C63.8762 23.6229 63.7609 23.1731 63.7609 22.6887H73.8864V22.2044C73.8864 21.2587 73.7711 20.3361 73.5404 19.4366C73.3098 18.5371 72.9292 17.7183 72.4102 17.0032ZM63.7378 20.2785C63.7378 19.944 63.8186 19.598 63.9685 19.2636C64.1184 18.9292 64.349 18.6178 64.6374 18.341C64.9257 18.0758 65.2832 17.8451 65.7214 17.6606C66.1596 17.4761 66.6555 17.3953 67.2091 17.3953C67.7281 17.3953 68.1893 17.4876 68.593 17.6606C68.9966 17.8336 69.3311 18.0642 69.5963 18.341C69.85 18.6178 70.0576 18.9176 70.1845 19.2636C70.3229 19.598 70.392 19.944 70.392 20.2785H63.7378Z" fill="#051C40"/>
<path d="M85.1668 15.3656C84.9131 15.2733 84.694 15.181 84.4979 15.1118C84.3019 15.0311 84.0943 14.9734 83.8636 14.9273C83.633 14.8812 83.3677 14.8351 83.091 14.812C82.8026 14.7889 82.4336 14.7659 81.9954 14.7659C81.6609 14.7659 81.2804 14.812 80.8421 14.8927C80.3924 14.9734 79.9426 15.1234 79.4698 15.3194C78.9969 15.5155 78.5356 15.7692 78.0628 16.069C77.6015 16.3689 77.1748 16.7494 76.7942 17.1992C76.3329 17.7412 75.9408 18.4101 75.641 19.1943C75.3296 19.9785 75.1797 20.8896 75.1797 21.916C75.1797 23.0116 75.3527 23.9803 75.6986 24.8337C76.0446 25.6756 76.4944 26.3906 77.0595 26.9787C77.613 27.5669 78.2589 28.0051 78.9739 28.305C79.6889 28.6048 80.4039 28.7547 81.142 28.7547C81.6609 28.7547 82.1338 28.6971 82.5374 28.5817C82.9526 28.4664 83.3331 28.328 83.6676 28.155C84.002 27.9821 84.3019 27.7975 84.544 27.59C84.7978 27.3824 85.0053 27.1863 85.1783 27.0018L85.2706 28.305H88.5689V9.46094H85.1899V15.3656H85.1668ZM85.1668 22.4349C85.1668 22.8155 85.1091 23.2076 84.9938 23.6113C84.8785 24.0149 84.694 24.3839 84.4402 24.7299C84.1865 25.0759 83.8636 25.3527 83.46 25.5602C83.0564 25.7794 82.5605 25.8831 81.9838 25.8831C80.8882 25.8831 80.0464 25.5026 79.4698 24.753C78.8931 24.0034 78.6048 23.0577 78.6048 21.9275C78.6048 21.3855 78.6856 20.855 78.847 20.3591C79.0085 19.8632 79.2391 19.425 79.5274 19.0444C79.8503 18.6292 80.2424 18.2948 80.6807 18.0411C81.1189 17.7874 81.684 17.6605 82.3529 17.6605C83.0333 17.6605 83.5868 17.7182 84.0135 17.822C84.4518 17.9258 84.8323 18.1103 85.1553 18.3755V22.4349H85.1668Z" fill="#051C40"/>
<path d="M96.2361 14.1665C96.7666 13.5553 97.4124 13.0594 98.162 12.7019C98.9116 12.3329 99.765 12.1484 100.711 12.1484C101.945 12.1484 102.971 12.4136 103.79 12.9441C104.609 13.4746 105.324 14.1665 105.946 15.0315L108.518 12.7942C108.138 12.2637 107.688 11.7678 107.192 11.3065C106.696 10.8452 106.119 10.4416 105.474 10.1071C104.828 9.77267 104.113 9.4959 103.317 9.29984C102.533 9.10379 101.656 9 100.711 9C99.2461 9 97.9083 9.26525 96.6859 9.79574C95.475 10.3262 94.4255 11.0412 93.549 11.9408C92.6726 12.8403 91.9922 13.9013 91.5078 15.1007C91.0234 16.3116 90.7812 17.6032 90.7812 18.9756C90.7812 20.3825 91.0234 21.6857 91.5078 22.8735C91.9922 24.0614 92.661 25.0993 93.5375 25.9642C94.4024 26.8407 95.4288 27.5211 96.6282 28.017C97.8276 28.5014 99.1423 28.7551 100.595 28.7551C101.518 28.7551 102.394 28.6282 103.225 28.386C104.055 28.1439 104.816 27.8325 105.508 27.4404C106.2 27.0483 106.8 26.6331 107.319 26.1834C107.826 25.7336 108.23 25.2838 108.518 24.8571L105.969 22.7121C105.739 22.9427 105.485 23.208 105.197 23.5194C104.92 23.8307 104.574 24.1306 104.159 24.4074C103.744 24.6957 103.248 24.9263 102.66 25.1108C102.072 25.2954 101.368 25.3876 100.538 25.3876C99.6266 25.3876 98.8194 25.2146 98.0928 24.8802C97.3663 24.5457 96.7435 24.0844 96.2246 23.4963C95.7056 22.9081 95.302 22.2277 95.0252 21.432C94.7484 20.6478 94.61 19.7944 94.61 18.8948C94.61 17.9953 94.7484 17.1304 95.0252 16.3116C95.302 15.4928 95.7056 14.7778 96.2361 14.1665Z" fill="#051C40"/>
<path d="M167.23 9.46094C165.697 9.46094 164.451 10.6718 164.451 12.1711C164.451 13.6703 165.697 14.8812 167.23 14.8812C168.764 14.8812 169.998 13.6703 169.998 12.1711C169.998 10.6718 168.764 9.46094 167.23 9.46094ZM167.23 14.2469C166.054 14.2469 165.097 13.3128 165.097 12.1711C165.097 11.0294 166.054 10.0952 167.23 10.0952C168.407 10.0952 169.364 11.0294 169.364 12.1711C169.352 13.3128 168.395 14.2469 167.23 14.2469Z" fill="#051C40"/>
<path d="M168.152 12.6216C168.106 12.4255 168.037 12.264 167.933 12.1487C168.152 11.9757 168.268 11.7336 168.268 11.4452C168.268 11.18 168.164 10.9493 167.991 10.7994C167.783 10.6149 167.506 10.5342 167.08 10.5342C166.826 10.5342 166.561 10.5572 166.376 10.5918L166.215 10.6264V13.5903H166.964V12.4486H167.08C167.264 12.4601 167.357 12.4947 167.426 12.8061C167.518 13.2212 167.576 13.4058 167.622 13.4865L167.679 13.5903H168.498L168.337 13.302C168.291 13.2097 168.21 12.8637 168.152 12.6216ZM167.103 11.7912H166.953V11.2031C166.988 11.2031 167.034 11.2031 167.091 11.2031C167.506 11.2031 167.506 11.4106 167.506 11.4914C167.518 11.7566 167.23 11.7912 167.103 11.7912Z" fill="#051C40"/>
<path fill-rule="evenodd" clip-rule="evenodd" d="M34.5614 27.4564C36.0533 24.793 36.9039 21.7218 36.9039 18.4519C36.9039 8.26121 28.6426 0 18.4519 0C8.26121 0 0 8.26121 0 18.4519C0 28.6426 8.26121 36.9039 18.4519 36.9039C21.5865 36.9039 24.5384 36.1223 27.1236 34.7433C26.3754 33.8394 25.9258 32.6793 25.9258 31.4142C25.9258 28.5286 28.265 26.1895 31.1505 26.1895C32.4541 26.1895 33.6462 26.6669 34.5614 27.4564Z" fill="url(#paint0_linear_1965_22107)"/>
<circle cx="31.3487" cy="31.4805" r="3.57134" fill="#3BB7DD"/>
<defs>
<linearGradient id="paint0_linear_1965_22107" x1="18.4519" y1="0" x2="26.9173" y2="35.052" gradientUnits="userSpaceOnUse">
<stop stop-color="#36CEF6"/>
<stop offset="1" stop-color="#389BCE"/>
</linearGradient>
</defs>
</svg>
