<svg version="1.1" id="Layer_1" xmlns="http://www.w3.org/2000/svg" xmlns:xlink="http://www.w3.org/1999/xlink" x="0px" y="0px" viewBox="0 0 841.89 300.47" enable-background="new 0 0 841.89 300.47" xml:space="preserve">
<g display="none">
	<path display="inline" fill="#141319" d="M-1833.511,230.615v-21.744c0-6.537,1.9-11.59,5.656-15.252
		c3.756-3.616,8.484-5.425,14.186-5.425c4.312,0,8.113,1.113,11.451,3.292c3.385,2.226,5.749,5.378,7.14,9.504h0.278l26.797-14.048
		v12.147l-25.823,13.398v6.768h25.823v11.359H-1833.511z M-1823.173,219.256h19.101v-8.762c0-7.093-3.431-10.709-9.597-10.709
		c-6.073,0-9.504,3.616-9.504,10.709V219.256z"></path>
	<path display="inline" fill="#141319" d="M-1834.171,55.021V33.277c0-6.537,1.9-11.59,5.656-15.252
		c3.755-3.616,8.484-5.425,14.186-5.425c4.312,0,8.113,1.113,11.451,3.292c3.385,2.226,5.749,5.378,7.14,9.504h0.278l26.797-14.048
		v12.147l-25.823,13.398v6.768h25.823v11.359H-1834.171z M-1823.833,43.662h19.101V34.9c0-7.093-3.431-10.709-9.597-10.709
		c-6.073,0-9.504,3.616-9.504,10.709V43.662z"></path>
	<path display="inline" fill="#141319" d="M-1877.183,77.321l21.744,0c6.537,0,11.59,1.9,15.252,5.656
		c3.616,3.756,5.425,8.484,5.425,14.186c0,4.312-1.113,8.113-3.292,11.451c-2.226,3.385-5.378,5.749-9.504,7.14v0.278l14.048,26.797
		l-12.147,0l-13.398-25.823h-6.769v25.823h-11.359V77.321z M-1865.824,87.659v19.101l8.762,0c7.093,0,10.709-3.431,10.709-9.597
		c0-6.073-3.616-9.504-10.709-9.504H-1865.824z"></path>
	<path display="inline" fill="#141319" d="M-1166.436,77.321l21.744,0c6.537,0,11.59,1.9,15.252,5.656
		c3.616,3.756,5.425,8.484,5.425,14.186c0,4.312-1.113,8.113-3.292,11.451c-2.226,3.385-5.378,5.749-9.504,7.14v0.278l14.048,26.797
		l-12.147,0l-13.398-25.823h-6.768v25.823h-11.359V77.321z M-1155.077,87.659v19.101l8.762,0c7.093,0,10.709-3.431,10.709-9.597
		c0-6.073-3.616-9.504-10.709-9.504H-1155.077z"></path>
</g>
<g display="none">
</g>
<g>
	<path fill="#000000" d="M335.576,207.401h2.916l7.747,19.826h-2.916l-2.166-5.97h-8.385l-2.222,5.97h-2.721L335.576,207.401z
		 M333.604,219.035h6.721l-3.305-9.246h-0.056L333.604,219.035z"></path>
	<path fill="#000000" d="M368.335,227.227h-2.36v-1.944h-0.056c-0.778,1.583-2.582,2.277-4.582,2.277
		c-4.415,0-6.61-3.499-6.61-7.553s2.166-7.469,6.554-7.469c1.444,0,3.61,0.554,4.637,2.249h0.056v-7.386h2.36V227.227z
		 M361.671,225.477c3.192,0,4.386-2.748,4.386-5.414c0-2.805-1.277-5.442-4.526-5.442c-3.221,0-4.304,2.749-4.304,5.554
		C357.228,222.867,358.616,225.477,361.671,225.477z"></path>
	<path fill="#000000" d="M374.467,210.289h-2.361v-2.889h2.361V210.289z M372.106,212.872h2.361v14.355h-2.361V212.872z"></path>
	<path fill="#000000" d="M384.6,227.227h-2.527l-5.331-14.355h2.638l4.026,11.967h0.056l3.915-11.967h2.471L384.6,227.227z"></path>
	<path fill="#000000" d="M394.51,210.289h-2.361v-2.889h2.361V210.289z M392.149,212.872h2.361v14.355h-2.361V212.872z"></path>
	<path fill="#000000" d="M399.616,222.701c0.084,2.111,1.944,2.776,3.861,2.776c1.471,0,3.47-0.332,3.47-2.138
		c0-3.692-9.386-1.194-9.386-6.719c0-2.887,2.833-4.081,5.36-4.081c3.221,0,5.665,0.999,5.887,4.498h-2.361
		c-0.138-1.833-1.804-2.416-3.332-2.416c-1.415,0-3.054,0.389-3.054,1.833c0,1.666,2.5,1.999,4.693,2.5
		c2.36,0.527,4.693,1.332,4.693,4.081c0,3.443-3.194,4.526-6.109,4.526c-3.221,0-5.943-1.305-6.081-4.86H399.616z"></path>
	<path fill="#000000" d="M414.553,210.289h-2.361v-2.889h2.361V210.289z M412.192,212.872h2.361v14.355h-2.361V212.872z"></path>
	<path fill="#000000" d="M424.408,212.538c4.553,0,6.97,3.303,6.97,7.525c0,4.193-2.417,7.497-6.97,7.497
		c-4.553,0-6.97-3.305-6.97-7.497C417.437,215.842,419.854,212.538,424.408,212.538z M424.408,225.477
		c2.471,0,4.471-1.942,4.471-5.414s-1.999-5.442-4.471-5.442c-2.471,0-4.471,1.971-4.471,5.442S421.936,225.477,424.408,225.477z"></path>
	<path fill="#000000" d="M434.15,212.872h2.222v2.276h0.056c0.999-1.777,2.582-2.609,4.664-2.609c3.776,0,4.942,2.166,4.942,5.247
		v9.441h-2.36v-9.719c0-1.777-1.11-2.887-2.916-2.887c-2.86,0-4.248,1.917-4.248,4.499v8.107h-2.36V212.872z"></path>
	<path fill="#000000" d="M463.494,212.538c4.553,0,6.97,3.303,6.97,7.525c0,4.193-2.417,7.497-6.97,7.497
		c-4.553,0-6.97-3.305-6.97-7.497C456.524,215.842,458.941,212.538,463.494,212.538z M463.494,225.477
		c2.471,0,4.47-1.942,4.47-5.414s-1.999-5.442-4.47-5.442c-2.471,0-4.471,1.971-4.471,5.442S461.023,225.477,463.494,225.477z"></path>
	<path fill="#000000" d="M474.208,214.954h-2.416v-2.082h2.416v-2.139c0-2.331,1.388-3.554,3.97-3.554
		c0.445,0,1.083,0.084,1.528,0.222v2.055c-0.416-0.138-0.916-0.194-1.332-0.194c-1.139,0-1.806,0.361-1.806,1.61v1.999h2.777v2.082
		h-2.777v12.273h-2.36V214.954z"></path>
</g>
<path fill="#000000" stroke="#000000" stroke-miterlimit="10" d="M603.219,194.127h-31.644v7.489h11.603v33.015h8.544v-33.015
	h11.603v-7.489H603.219z"></path>
<path fill="#000000" stroke="#000000" stroke-miterlimit="10" d="M609.758,225.455h-0.105l-6.329-20.146h-8.122l9.81,27.53
	c0.211,0.527,0.316,1.16,0.316,1.793c0,0.844-0.211,1.688-0.738,2.426c-0.527,0.738-1.266,1.16-2.215,1.266
	c-0.738,0-1.477,0-2.321-0.105c-0.738-0.105-1.477-0.105-2.215-0.211v6.645c0.844,0.105,1.582,0.105,2.321,0.211
	c0.738,0.105,1.582,0.105,2.321,0.105c2.637,0,4.641-0.527,6.118-1.582c1.477-1.055,2.637-2.742,3.481-5.063l11.708-33.015h-7.911
	L609.758,225.455z"></path>
<path fill="#000000" stroke="#000000" stroke-miterlimit="10" d="M665.346,206.89c-0.949-0.844-2.004-1.477-3.27-1.793
	c-1.266-0.422-2.637-0.527-4.114-0.527c-1.899,0-3.586,0.527-5.063,1.477c-1.477,0.949-2.531,2.11-3.375,3.375
	c-0.738-1.793-1.899-3.059-3.375-3.797c-1.477-0.738-3.059-1.055-4.852-1.055s-3.481,0.422-4.852,1.266
	c-1.477,0.844-2.637,2.004-3.692,3.481h-0.105v-4.008h-7.278v29.323h7.7v-17.088c0-1.477,0.211-2.637,0.633-3.481
	c0.422-0.844,0.844-1.582,1.477-2.004c0.527-0.422,1.16-0.844,1.688-0.949c0.633-0.211,1.055-0.211,1.477-0.211
	c1.266,0,2.11,0.211,2.742,0.633s1.055,1.055,1.371,1.688c0.316,0.738,0.422,1.477,0.422,2.321c0,0.844,0.105,1.688,0.105,2.531
	v16.455h7.7v-16.349c0-0.949,0.106-1.793,0.211-2.742c0.105-0.844,0.422-1.688,0.738-2.426c0.422-0.738,0.949-1.266,1.582-1.688
	s1.582-0.633,2.637-0.633c1.055,0,1.899,0.211,2.531,0.527c0.633,0.422,1.16,0.844,1.477,1.582c0.316,0.633,0.527,1.371,0.633,2.321
	c0.105,0.844,0.105,1.793,0.105,2.742v16.666h7.7v-19.619c0-1.899-0.211-3.481-0.738-4.852
	C667.033,208.894,666.295,207.734,665.346,206.89L665.346,206.89z"></path>
<path fill="#000000" stroke="#000000" stroke-miterlimit="10" d="M695.618,209.844c-1.16-1.582-2.637-2.953-4.325-3.903
	c-1.793-0.949-3.797-1.477-6.223-1.477c-2.11,0-4.114,0.422-5.801,1.16c-1.793,0.844-3.27,1.899-4.536,3.27
	c-1.266,1.371-2.215,3.059-2.953,4.958c-0.738,1.899-1.055,3.903-1.055,6.118c0,2.321,0.316,4.325,0.949,6.223
	c0.633,1.899,1.582,3.481,2.848,4.852s2.742,2.426,4.536,3.164c1.793,0.738,3.797,1.055,5.907,1.055
	c3.164,0,5.907-0.738,8.122-2.321c2.215-1.477,3.903-4.008,4.958-7.594h-6.751c-0.211,0.949-0.949,1.793-2.004,2.637
	c-1.16,0.844-2.426,1.266-4.008,1.266c-2.215,0-3.797-0.633-4.958-1.793c-1.16-1.16-1.793-3.059-1.899-5.696h20.146
	c0.105-2.321,0-4.43-0.527-6.54C697.622,213.325,696.778,211.531,695.618,209.844L695.618,209.844z M678.425,216.911
	c0-0.527,0.105-1.16,0.316-1.899c0.211-0.738,0.527-1.371,1.055-2.004c0.527-0.633,1.16-1.16,1.899-1.582
	c0.844-0.422,1.793-0.633,3.059-0.633c1.899,0,3.27,0.527,4.219,1.582c0.949,1.055,1.582,2.637,1.899,4.641h-12.447V216.911z"></path>
<path fill="#000000" stroke="#000000" stroke-miterlimit="10" d="M724.203,213.325v-0.105c1.055-0.211,1.899-0.633,2.742-1.16
	c0.844-0.527,1.477-1.266,2.11-2.11c0.633-0.844,1.055-1.688,1.371-2.742c0.316-0.949,0.527-2.004,0.527-3.059
	c0-1.899-0.316-3.481-1.055-4.747s-1.582-2.321-2.742-3.059c-1.16-0.738-2.426-1.371-3.903-1.688
	c-1.477-0.316-3.059-0.527-4.641-0.527h-16.349v40.504h16.349c2.11,0,3.903-0.211,5.379-0.633s2.742-0.949,3.797-1.582
	c1.055-0.633,1.899-1.371,2.426-2.215c0.633-0.844,1.055-1.688,1.371-2.531c0.316-0.844,0.527-1.688,0.633-2.531
	c0.106-0.844,0.211-1.582,0.211-2.215c0-2.637-0.738-4.852-2.215-6.645C728.633,214.696,726.629,213.641,724.203,213.325
	L724.203,213.325z M705.85,197.503h12.657c5.801,0,8.755,2.531,8.755,7.594c0,0.949-0.211,1.793-0.527,2.637
	c-0.316,0.844-0.949,1.582-1.582,2.215c-0.738,0.633-1.582,1.16-2.742,1.477c-1.055,0.316-2.32,0.527-3.797,0.527h-12.657v-14.451
	H705.85z M727.895,227.142c-0.527,1.055-1.266,1.899-2.215,2.637c-0.949,0.633-2.004,1.055-3.27,1.371
	c-1.266,0.211-2.531,0.422-3.903,0.422H705.85v-16.138h12.657c3.27,0,5.801,0.633,7.594,2.004c1.793,1.266,2.637,3.27,2.637,5.907
	C728.633,224.716,728.422,226.088,727.895,227.142L727.895,227.142z"></path>
<path fill="#000000" stroke="#000000" stroke-miterlimit="10" d="M756.69,229.568v-15.611c0-2.004-0.316-3.586-0.949-4.852
	s-1.371-2.215-2.426-2.848c-0.949-0.633-2.11-1.16-3.27-1.371c-1.266-0.211-2.426-0.422-3.692-0.422
	c-1.582,0-3.059,0.211-4.43,0.527c-1.371,0.422-2.531,0.949-3.481,1.793c-0.949,0.844-1.793,1.793-2.32,3.059
	c-0.527,1.266-0.949,2.742-1.055,4.43h3.375c0.106-2.426,0.844-4.114,2.215-5.168c1.371-1.055,3.164-1.582,5.274-1.582
	c1.055,0,2.004,0.105,2.848,0.211c0.844,0.211,1.688,0.527,2.32,0.949c0.633,0.422,1.16,1.055,1.582,1.899
	c0.422,0.738,0.527,1.793,0.527,2.953c0,0.844-0.106,1.477-0.316,1.899c-0.211,0.527-0.527,0.844-0.844,1.16
	c-0.316,0.316-0.844,0.527-1.371,0.633c-0.527,0.105-1.16,0.211-1.899,0.316c-1.793,0.211-3.692,0.422-5.485,0.738
	c-1.793,0.211-3.375,0.633-4.852,1.266c-1.477,0.633-2.531,1.477-3.481,2.637c-0.844,1.16-1.266,2.742-1.266,4.747
	c0,1.477,0.211,2.742,0.738,3.797c0.527,1.055,1.16,2.004,2.004,2.637c0.844,0.738,1.793,1.16,2.953,1.582
	c1.16,0.316,2.321,0.527,3.692,0.527s2.531-0.105,3.586-0.422c0.949-0.316,1.899-0.633,2.637-1.16
	c0.738-0.527,1.477-1.055,2.11-1.793c0.633-0.738,1.266-1.582,1.899-2.531h0.106c0,0.738,0,1.477,0.105,2.11
	c0.105,0.633,0.316,1.16,0.527,1.582c0.316,0.422,0.738,0.844,1.266,1.055c0.527,0.211,1.266,0.422,2.11,0.422
	c0.422,0,0.844,0,1.16-0.105c0.316,0,0.633-0.105,1.055-0.211v-3.059c-0.316,0.105-0.633,0.211-1.055,0.211
	C757.323,231.678,756.69,230.94,756.69,229.568L756.69,229.568z M753.315,223.345c0,1.477-0.211,2.742-0.738,3.903
	s-1.266,2.11-2.11,2.848c-0.844,0.844-1.899,1.371-3.059,1.793c-1.16,0.422-2.426,0.633-3.692,0.633
	c-0.844,0-1.582-0.105-2.321-0.422c-0.738-0.211-1.477-0.633-2.004-1.16c-0.527-0.527-1.055-1.16-1.371-1.793
	c-0.316-0.738-0.527-1.477-0.527-2.426c0-1.477,0.422-2.531,1.266-3.375c0.844-0.738,1.899-1.371,3.059-1.793
	c1.266-0.422,2.637-0.738,4.219-0.949c1.582-0.211,3.059-0.422,4.43-0.738c0.422-0.105,1.055-0.211,1.582-0.422
	c0.633-0.211,1.055-0.527,1.266-0.949h0.105v4.852H753.315z"></path>
<path fill="#000000" stroke="#000000" stroke-miterlimit="10" d="M782.849,207.629c-0.844-0.949-1.899-1.688-3.164-2.215
	c-1.266-0.527-2.953-0.844-4.852-0.844c-2.004,0-3.797,0.527-5.485,1.582s-2.848,2.531-3.481,4.325h-0.106v-5.063h-3.375v29.323
	h3.375v-17.088c0-1.477,0.211-2.742,0.633-4.008c0.422-1.266,0.949-2.321,1.688-3.164c0.738-0.844,1.688-1.582,2.742-2.11
	c1.055-0.527,2.32-0.738,3.692-0.738c1.371,0,2.531,0.211,3.481,0.633c0.949,0.422,1.688,1.055,2.215,1.899
	c0.527,0.844,0.949,1.688,1.16,2.848c0.211,1.055,0.316,2.215,0.316,3.481v18.248h3.375v-18.881c0-1.688-0.211-3.27-0.527-4.747
	C784.22,209.738,783.693,208.578,782.849,207.629L782.849,207.629z"></path>
<path fill="#000000" stroke="#000000" stroke-miterlimit="10" d="M800.57,216.278l11.919-10.864h-4.536l-15.505,14.24v-25.42h-3.375
	v40.504h3.375v-11.181l5.485-4.852l11.075,15.927h4.325L800.57,216.278z"></path>
<path fill="none" d="M501.173,193.408v6.639l36.44-6.337l20.974,7.771v-4.828l-17.579-11.468L501.173,193.408z"></path>
<g>
	<g>
		<defs>
			<polygon id="SVGID_1_" points="501.173,193.408 501.173,200.047 537.613,193.71 558.662,201.556 558.662,196.652 541.008,185.26 
							"></polygon>
		</defs>
		<clipPath id="SVGID_00000052065827957994201360000008313653409313434284_">
			<use xlink:href="#SVGID_1_" overflow="visible"></use>
		</clipPath>
		<g clip-path="url(#SVGID_00000052065827957994201360000008313653409313434284_)">
			<g>
				
					<linearGradient id="SVGID_00000067201751131837671640000016169547116812938429_" gradientUnits="userSpaceOnUse" x1="-3598.3865" y1="731.6025" x2="-3598.9788" y2="731.3275" gradientTransform="matrix(90.0703 0 0 70.5894 324665.6562 -51439.7695)">
					<stop offset="0.01" style="stop-color:#F9BE28"></stop>
					<stop offset="0.4" style="stop-color:#F9BE28"></stop>
					<stop offset="0.99" style="stop-color:#595A5B"></stop>
				</linearGradient>
				<path fill="url(#SVGID_00000067201751131837671640000016169547116812938429_)" d="M551.872,220.04l-55.98-20.37l11.996-32.894
					l55.98,20.37L551.872,220.04z"></path>
			</g>
		</g>
	</g>
</g>
<path fill="none" d="M501.173,202.537v6.866l31.461-2.641l26.029,2.867v-6.111l-22.256-6.413L501.173,202.537z"></path>
<g>
	<g>
		<defs>
			<polygon id="SVGID_00000098904286795632977140000014274750185134362257_" points="501.173,202.537 501.173,209.403 
				532.558,206.762 558.662,209.629 558.662,203.518 536.406,197.181 			"></polygon>
		</defs>
		<clipPath id="SVGID_00000145028105604890440400000001063700675523675324_">
			<use xlink:href="#SVGID_00000098904286795632977140000014274750185134362257_" overflow="visible"></use>
		</clipPath>
		<g clip-path="url(#SVGID_00000145028105604890440400000001063700675523675324_)">
			<g>
				
					<linearGradient id="SVGID_00000173136813412154775720000017869323614097474450_" gradientUnits="userSpaceOnUse" x1="-3596.647" y1="733.0644" x2="-3597.2578" y2="732.7697" gradientTransform="matrix(86.7901 0 0 65.4858 312710.5625 -47791.9414)">
					<stop offset="0.01" style="stop-color:#F9BE28"></stop>
					<stop offset="0.45" style="stop-color:#F9BE28"></stop>
					<stop offset="0.99" style="stop-color:#595A5B"></stop>
				</linearGradient>
				<path fill="url(#SVGID_00000173136813412154775720000017869323614097474450_)" d="M551.872,228.113l-54.773-19.918
					l10.713-29.499l54.773,19.918L551.872,228.113z"></path>
			</g>
		</g>
	</g>
</g>
<path fill="none" d="M501.173,211.666v7.016l25.576,1.811l31.913-1.584v-7.167l-27.537-1.735L501.173,211.666z"></path>
<g>
	<g>
		<defs>
			<polygon id="SVGID_00000100368428403763298330000009662121155824140694_" points="501.173,211.666 501.173,218.758 
				526.673,220.493 558.662,218.909 558.662,211.741 531.125,210.006 			"></polygon>
		</defs>
		<clipPath id="SVGID_00000044169959107777157110000015508625391212124073_">
			<use xlink:href="#SVGID_00000100368428403763298330000009662121155824140694_" overflow="visible"></use>
		</clipPath>
		<g clip-path="url(#SVGID_00000044169959107777157110000015508625391212124073_)">
			<g>
				
					<linearGradient id="SVGID_00000038396875696450067610000011831886013246400407_" gradientUnits="userSpaceOnUse" x1="-3595.7192" y1="733.8572" x2="-3596.3428" y2="733.5501" gradientTransform="matrix(85.1289 0 0 62.9013 306656.0938 -45935.6406)">
					<stop offset="0.01" style="stop-color:#F9BE28"></stop>
					<stop offset="0.52" style="stop-color:#F9BE28"></stop>
					<stop offset="0.99" style="stop-color:#595A5B"></stop>
				</linearGradient>
				<path fill="url(#SVGID_00000038396875696450067610000011831886013246400407_)" d="M551.872,238.977l-54.094-19.691l10.11-27.764
					l54.094,19.691L551.872,238.977z"></path>
			</g>
		</g>
	</g>
</g>
<path fill="none" d="M501.173,226.68l20.446,6.564l36.968-5.206v-6.941l-33.347,2.565l-24.142-2.867v5.885H501.173z"></path>
<g>
	<g>
		<defs>
			<polygon id="SVGID_00000004524386792358936640000000622329073061711540_" points="501.173,226.68 521.618,233.319 
				558.662,228.113 558.662,221.097 525.24,223.662 501.173,220.87 			"></polygon>
		</defs>
		<clipPath id="SVGID_00000035524620666568426020000004204673320935623346_">
			<use xlink:href="#SVGID_00000004524386792358936640000000622329073061711540_" overflow="visible"></use>
		</clipPath>
		<g clip-path="url(#SVGID_00000035524620666568426020000004204673320935623346_)">
			<g>
				
					<linearGradient id="SVGID_00000109030184895398197860000007392201909357267385_" gradientUnits="userSpaceOnUse" x1="-3596.6558" y1="732.9461" x2="-3597.2673" y2="732.6511" gradientTransform="matrix(86.7725 0 0 65.458 312646.4062 -47740.7578)">
					<stop offset="0.01" style="stop-color:#F9BE28"></stop>
					<stop offset="0.6" style="stop-color:#F9BE28"></stop>
					<stop offset="0.99" style="stop-color:#595A5B"></stop>
				</linearGradient>
				<path fill="url(#SVGID_00000109030184895398197860000007392201909357267385_)" d="M551.872,251.727l-54.773-19.918
					l10.713-29.424l54.773,19.918L551.872,251.727z"></path>
			</g>
		</g>
	</g>
</g>
<path fill="none" d="M501.173,233.394l15.768,11.694l41.721-7.771v-6.715l-38.402,6.111l-19.088-7.922V233.394z"></path>
<g>
	<g>
		<defs>
			<polygon id="SVGID_00000026863456912086533890000001893181491862276796_" points="501.173,233.394 516.941,245.088 
				558.662,237.317 558.662,230.603 520.26,236.714 501.173,228.792 			"></polygon>
		</defs>
		<clipPath id="SVGID_00000095313757306700986860000012999066217756989879_">
			<use xlink:href="#SVGID_00000026863456912086533890000001893181491862276796_" overflow="visible"></use>
		</clipPath>
		<g clip-path="url(#SVGID_00000095313757306700986860000012999066217756989879_)">
			<g>
				
					<linearGradient id="SVGID_00000026861058331706420130000015394351026312985265_" gradientUnits="userSpaceOnUse" x1="-3598.407" y1="731.3947" x2="-3599.0007" y2="731.1187" gradientTransform="matrix(90.0547 0 0 70.5645 324608.8125 -51364.2852)">
					<stop offset="0.01" style="stop-color:#F9BE28"></stop>
					<stop offset="0.65" style="stop-color:#F9BE28"></stop>
					<stop offset="0.99" style="stop-color:#595A5B"></stop>
				</linearGradient>
				<path fill="url(#SVGID_00000026861058331706420130000015394351026312985265_)" d="M551.872,263.572l-55.98-20.37l11.996-32.894
					l55.98,20.37L551.872,263.572z"></path>
			</g>
		</g>
	</g>
</g>
<g id="logo-icon">
	<path id="Path_492" fill="#000000" d="M161.607,50.093c9.659,19.707,7.994,50.405-6.326,79.888
		c-14.32,29.483-37.443,49.801-58.914,54.386c42.63,6.628,82.562-22.557,89.19-65.187c0.615-3.952,0.925-7.946,0.927-11.945
		c0.025-21.678-8.991-42.385-24.877-57.134"></path>
	<path id="Path_493" fill="#000000" d="M61.575,84.471C75.9,54.965,99.018,34.67,120.489,30.085
		c-42.63-6.628-82.562,22.557-89.19,65.187c-0.615,3.956-0.925,7.953-0.927,11.956c-0.025,21.678,8.991,42.384,24.877,57.134
		c-9.659-19.709-7.994-50.405,6.326-79.888"></path>
	<path id="Path_494" fill="#000000" d="M124.46,70.818c12.987,5.42,23.305,15.754,28.705,28.749
		c2.147-9.087,2.789-18.465,1.9-27.761c-0.885-8.15-4.096-22.658-15.681-28.284c-3.088-1.468-6.47-2.212-9.888-2.175
		c-8.848,0-19.15,4.385-29.041,12.348c-5.318,4.322-10.142,9.217-14.385,14.598c12.675-3.909,26.345-3.009,38.398,2.527"></path>
	<path id="Path_495" fill="#000000" d="M92.427,143.63c-12.987-5.42-23.305-15.754-28.705-28.749
		c-2.147,9.087-2.789,18.465-1.9,27.761c0.885,8.148,4.096,22.658,15.681,28.281c3.087,1.472,6.469,2.218,9.888,2.181
		c8.848,0,19.15-4.385,29.041-12.348c5.318-4.322,10.142-9.217,14.385-14.598c-12.675,3.909-26.345,3.009-38.398-2.527"></path>
	<path id="Path_496" fill="#000000" d="M108.436,89.723c10.157-0.32,20.223,1.995,29.22,6.719
		c-4.637-6.352-10.905-11.333-18.14-14.416c-5.691-2.529-11.842-3.858-18.07-3.903c-12.35,0-22.455,5.532-26.371,14.44
		c-1.235,2.84-1.834,5.916-1.754,9.011c4.991-6.888,18.827-11.84,35.114-11.84"></path>
	<path id="Path_497" fill="#000000" d="M108.428,124.72c-10.157,0.32-20.223-1.995-29.22-6.719
		c4.637,6.352,10.905,11.333,18.14,14.416c5.691,2.529,11.842,3.858,18.07,3.903c12.35,0,22.455-5.532,26.371-14.44
		c1.235-2.84,1.834-5.916,1.754-9.011c-4.991,6.888-18.827,11.84-35.114,11.84"></path>
	<path id="Path_498" fill="#000000" d="M130.779,107.228c0,2.904-10.003,5.259-22.34,5.259s-22.34-2.342-22.34-5.259
		s10.003-5.259,22.34-5.259S130.779,104.311,130.779,107.228"></path>
</g>
<g id="logo-text">
	<path id="Path_499" fill="#000000" d="M235.842,66.028h25.776c6.699-0.385,13.255,2.045,18.084,6.704
		c4.312,4.515,6.629,10.573,6.431,16.813c0.077,4.815-1.28,9.545-3.898,13.587c-2.67,4.035-6.65,7.025-11.268,8.466v0.333
		l16.652,31.766h-14.4l-15.888-30.617h-8.025v30.617h-13.468L235.842,66.028z M249.31,78.287v22.645h10.389
		c8.406,0,12.697-4.07,12.697-11.377c0-7.202-4.287-11.268-12.697-11.268H249.31z"></path>
	<path id="Path_500" fill="#000000" d="M334.808,96.543c4.513,4.788,6.927,11.18,6.704,17.755c0.07,2.161-0.133,4.322-0.606,6.431
		h-36.113c1.156,8.739,5.885,13.083,14.291,13.083c5.38-0.031,10.541-2.139,14.403-5.885l6.214,8.357
		c-5.795,5.891-13.849,8.996-22.099,8.519c-7.231,0.371-14.261-2.446-19.237-7.706c-4.788-5.473-7.288-12.578-6.981-19.843
		c-0.239-7.265,2.274-14.352,7.037-19.843c4.732-5.262,11.559-8.148,18.631-7.874C323.698,89.242,330.155,91.79,334.808,96.543
		 M305.343,110.726h23.416c-0.206-5.902-5.148-10.525-11.051-10.337C311.597,100.303,306.342,104.697,305.343,110.726"></path>
	<path id="Path_501" fill="#000000" d="M455.697,68.003c3.057,3.147,3.082,8.147,0.056,11.324c-1.515,1.505-3.582,2.321-5.716,2.256
		c-2.178,0.071-4.288-0.767-5.825-2.312c-3.077-3.126-3.077-8.142,0-11.268c3.211-3.078,8.278-3.078,11.489,0 M443.441,90.771h12.96
		v52.937h-12.96V90.771z"></path>
	<path id="Path_510" fill="#000000" d="M468.979,66.031h12.96V143.7h-12.96V66.031z"></path>
	<path id="Path_502" fill="#000000" d="M346.794,90.76h6.431V75.247h13.079V90.75h10.886v11.377h-10.886v23.416
		c0,5.716,1.751,7.31,6.76,7.31c1.549-0.035,3.092-0.181,4.62-0.438v10.935c-2.666,0.832-5.454,1.204-8.245,1.1
		c-4.478,0.411-8.932-0.997-12.361-3.906c-2.924-3.615-4.308-8.235-3.853-12.862v-25.57h-6.431L346.794,90.76z"></path>
	<path id="Path_503" fill="#000000" d="M431.017,108.347v29.356c-6.584,4.914-14.657,7.417-22.866,7.089
		c-5.935,0.287-11.818-1.227-16.876-4.343c-7.278-5.679-8.573-16.183-2.894-23.461c0.607-0.777,1.281-1.5,2.015-2.158
		c4.463-3.212,9.899-4.785,15.387-4.452c4.008-0.084,7.991,0.646,11.71,2.144h0.659v-3.408c0-5.66-3.681-8.466-11.104-8.406
		c-5.221-0.018-10.356,1.327-14.897,3.902l-4.729-9.895c6.505-3.586,13.849-5.373,21.275-5.177c14.459,0,22.319,6.928,22.319,18.796
		 M397.814,127.248c0,4.554,3.408,6.872,10.221,6.872c3.569,0.166,7.102-0.775,10.116-2.694v-9.125
		c-3.243-1.195-6.661-1.846-10.116-1.927C401.222,120.376,397.814,122.687,397.814,127.248"></path>
	<path id="Path_504" fill="#000000" d="M694.259,68.003c3.057,3.147,3.082,8.147,0.056,11.324c-1.515,1.505-3.582,2.32-5.716,2.256
		c-2.178,0.071-4.288-0.767-5.825-2.312c-3.077-3.126-3.077-8.142,0-11.268c3.211-3.078,8.278-3.078,11.489,0 M682.003,90.771h12.96
		v52.937h-12.96V90.771z"></path>
	<path id="Path_505" fill="#000000" d="M610.352,108.347v29.356c-6.584,4.914-14.656,7.417-22.866,7.089
		c-5.935,0.287-11.818-1.227-16.876-4.343c-7.278-5.679-8.573-16.183-2.894-23.461c0.607-0.777,1.281-1.5,2.015-2.158
		c4.463-3.212,9.899-4.785,15.387-4.452c4.008-0.084,7.991,0.645,11.709,2.144h0.659v-3.408c0-5.66-3.681-8.466-11.104-8.406
		c-5.221-0.018-10.356,1.327-14.897,3.902l-4.729-9.895c6.503-3.585,13.845-5.372,21.269-5.177c14.459,0,22.319,6.928,22.319,18.796
		 M577.143,127.248c0,4.554,3.408,6.872,10.221,6.872c3.569,0.166,7.102-0.775,10.116-2.694v-9.125
		c-3.243-1.195-6.661-1.846-10.116-1.927C580.551,120.376,577.143,122.687,577.143,127.248"></path>
	<path id="Path_506" fill="#000000" d="M634.209,166.247h-12.96V96.641c3.178-2.239,6.708-3.93,10.445-5.002
		c4.318-1.376,8.821-2.084,13.352-2.102c7.248-0.412,14.327,2.286,19.461,7.419c4.905,5.623,7.411,12.944,6.981,20.393
		c0.354,7.168-1.869,14.227-6.266,19.899c-7.828,8.608-20.848,10.024-30.344,3.3h-0.658L634.209,166.247z M658.174,117.381
		c0-10.158-4.452-16.218-13.31-16.218c-3.742-0.17-7.45,0.767-10.662,2.694v25.451c3.113,2.721,7.135,4.173,11.268,4.07
		c8.465,0,12.697-5.332,12.697-15.997"></path>
	<path id="Path_507" fill="#000000" d="M705.219,90.76h6.431V75.247h13.086V90.75h10.883v11.377h-10.883v23.416
		c0,5.716,1.751,7.31,6.76,7.31c1.549-0.035,3.093-0.182,4.62-0.438v10.935c-2.666,0.832-5.454,1.204-8.245,1.1
		c-4.479,0.411-8.935-0.996-12.365-3.906c-2.922-3.616-4.306-8.235-3.853-12.862v-25.57h-6.431L705.219,90.76z"></path>
	<path id="Path_508" fill="#000000" d="M789.446,108.347v29.356c-6.584,4.914-14.656,7.417-22.866,7.089
		c-5.935,0.287-11.818-1.227-16.876-4.343c-7.278-5.679-8.573-16.183-2.894-23.461c0.607-0.777,1.281-1.5,2.015-2.158
		c4.463-3.212,9.899-4.785,15.387-4.452c4.008-0.084,7.991,0.646,11.709,2.144h0.659v-3.408c0-5.66-3.681-8.466-11.104-8.406
		c-5.221-0.018-10.356,1.327-14.897,3.902l-4.729-9.895c6.505-3.586,13.85-5.373,21.275-5.177c14.459,0,22.319,6.928,22.319,18.796
		 M756.243,127.248c0,4.554,3.408,6.872,10.221,6.872c3.569,0.166,7.102-0.775,10.116-2.694v-9.125
		c-3.243-1.195-6.661-1.846-10.116-1.927C759.651,120.376,756.243,122.687,756.243,127.248"></path>
	<path id="Path_511" fill="#000000" d="M801.723,66.031h12.96V143.7h-12.96V66.031z"></path>
	<path id="Path_509" fill="#000000" d="M545.58,145.255c-20.344,0-36.891-18.116-36.891-40.383s16.547-40.379,36.891-40.379
		c5.39-0.001,10.703,1.28,15.499,3.737l0.126,0.063l-0.063,0.224l-4.708,11.622l-0.172-0.098c-3.253-1.86-6.936-2.841-10.683-2.844
		c-6.464,0.032-12.561,3.005-16.568,8.077c-8.741,11.591-8.741,27.572,0,39.164c4.005,5.082,10.108,8.062,16.578,8.095
		c3.747-0.004,7.429-0.983,10.683-2.841l0.172-0.102l4.778,11.839l-0.133,0.07c-4.797,2.458-10.11,3.739-15.499,3.737"></path>
</g>
</svg>